<svg xmlns="http://www.w3.org/2000/svg" width="1080" height="1080" viewBox="0 0 1080 1080" font-family="'Noto Sans CJK JP','IPAGothic',sans-serif"><defs>
    <linearGradient id="navy" x1="0" y1="0" x2="1" y2="1"><stop offset="0" stop-color="#0e1b33"/><stop offset="1" stop-color="#16294a"/></linearGradient>
    <linearGradient id="gold" x1="0" y1="0" x2="1" y2="1"><stop offset="0" stop-color="#e0bd6a"/><stop offset="1" stop-color="#c9a14a"/></linearGradient>
    <linearGradient id="hero" x1="0" y1="0" x2="0" y2="1"><stop offset="0" stop-color="#f7f9fc"/><stop offset="1" stop-color="#eef2f8"/></linearGradient>
  </defs>
  <rect width="1080" height="1080" fill="url(#hero)"/>
  <rect width="1080" height="150" fill="url(#navy)"/>
  <rect x="60" y="45" width="60" height="60" rx="15" fill="url(#gold)"/><text x="90" y="90" fill="#0e1b33" font-size="34" font-weight="900" text-anchor="middle">A</text>
  <text x="140" y="82" fill="#fff" font-size="32" font-weight="800">AUC-AGENT</text>
  <text x="141" y="112" fill="#b9c4d8" font-size="15" letter-spacing="2">CAR AUCTION AGENT</text>
  <rect x="830" y="55" width="190" height="44" rx="22" fill="url(#gold)"/><text x="925" y="84" fill="#0e1b33" font-size="21" font-weight="800" text-anchor="middle">購入代行</text>

  <text x="540" y="330" font-size="66" font-weight="900" fill="#0e1b33" text-anchor="middle">欲しいクルマを、</text>
  <text x="540" y="416" font-size="66" font-weight="900" fill="#0e1b33" text-anchor="middle"><tspan fill="#c9a14a">業者価格</tspan>で。</text>
  <rect x="410" y="448" width="260" height="7" rx="3" fill="url(#gold)"/>
  <text x="540" y="512" font-size="26" fill="#41506a" text-anchor="middle">中間マージンをカット。総額はその場でわかる。</text>

  <g><circle cx="230" cy="640" r="30" fill="url(#gold)"/><text x="230" y="650" font-size="30" text-anchor="middle">💰</text><text x="230" y="702" font-size="24" font-weight="800" fill="#0e1b33" text-anchor="middle">明朗料金</text></g>
  <g><circle cx="540" cy="640" r="30" fill="url(#gold)"/><text x="540" y="650" font-size="30" text-anchor="middle">🔎</text><text x="540" y="702" font-size="24" font-weight="800" fill="#0e1b33" text-anchor="middle">豊富な在庫</text></g>
  <g><circle cx="850" cy="640" r="30" fill="url(#gold)"/><text x="850" y="650" font-size="30" text-anchor="middle">🛡️</text><text x="850" y="702" font-size="24" font-weight="800" fill="#0e1b33" text-anchor="middle">安心保証</text></g>

  <rect x="290" y="760" width="500" height="72" rx="36" fill="url(#gold)"/>
  <text x="540" y="806" font-size="27" font-weight="800" fill="#0e1b33" text-anchor="middle">総額シミュを試す →</text>

  <rect y="884" width="1080" height="196" fill="url(#navy)"/>
  <text x="60" y="948" fill="#e0bd6a" font-size="40" font-weight="900">050-1722-3365</text>
  <text x="60" y="986" fill="#cfd6e6" font-size="20">info@aisjaltd.com ／ 平日 8:00〜17:00</text>
  <text x="60" y="1018" fill="#8ea0bb" font-size="15">合同会社アイズ（AUC-AGENT）福島県いわき市</text>
  <rect x="897.84" y="901.84" width="112.32" height="112.32" rx="10" fill="#fff"/><rect x="902" y="906" width="29.12" height="29.12" fill="#0e1b33"/><rect x="906.16" y="910.16" width="20.8" height="20.8" fill="#fff"/><rect x="910.32" y="914.32" width="12.48" height="12.48" fill="#0e1b33"/><rect x="976.88" y="906" width="29.12" height="29.12" fill="#0e1b33"/><rect x="981.04" y="910.16" width="20.8" height="20.8" fill="#fff"/><rect x="985.2" y="914.32" width="12.48" height="12.48" fill="#0e1b33"/><rect x="902" y="980.88" width="29.12" height="29.12" fill="#0e1b33"/><rect x="906.16" y="985.04" width="20.8" height="20.8" fill="#fff"/><rect x="910.32" y="989.2" width="12.48" height="12.48" fill="#0e1b33"/><rect x="943.6" y="914.32" width="4.16" height="4.16" fill="#0e1b33"/><rect x="951.92" y="918.48" width="4.16" height="4.16" fill="#0e1b33"/><rect x="960.24" y="914.32" width="4.16" height="4.16" fill="#0e1b33"/><rect x="968.56" y="922.64" width="4.16" height="4.16" fill="#0e1b33"/><rect x="976.88" y="914.32" width="4.16" height="4.16" fill="#0e1b33"/><rect x="943.6" y="926.8" width="4.16" height="4.16" fill="#0e1b33"/><rect x="956.08" y="930.96" width="4.16" height="4.16" fill="#0e1b33"/><rect x="968.56" y="930.96" width="4.16" height="4.16" fill="#0e1b33"/><rect x="981.04" y="926.8" width="4.16" height="4.16" fill="#0e1b33"/><rect x="910.32" y="955.92" width="4.16" height="4.16" fill="#0e1b33"/><rect x="914.48" y="964.24" width="4.16" height="4.16" fill="#0e1b33"/><rect x="922.8" y="955.92" width="4.16" height="4.16" fill="#0e1b33"/><rect x="910.32" y="972.56" width="4.16" height="4.16" fill="#0e1b33"/><rect x="918.64" y="980.88" width="4.16" height="4.16" fill="#0e1b33"/><rect x="947.76" y="951.76" width="4.16" height="4.16" fill="#0e1b33"/><rect x="956.08" y="955.92" width="4.16" height="4.16" fill="#0e1b33"/><rect x="964.4" y="951.76" width="4.16" height="4.16" fill="#0e1b33"/><rect x="972.72" y="960.08" width="4.16" height="4.16" fill="#0e1b33"/><rect x="981.04" y="955.92" width="4.16" height="4.16" fill="#0e1b33"/><rect x="947.76" y="964.24" width="4.16" height="4.16" fill="#0e1b33"/><rect x="960.24" y="968.4" width="4.16" height="4.16" fill="#0e1b33"/><rect x="972.72" y="972.56" width="4.16" height="4.16" fill="#0e1b33"/><rect x="981.04" y="980.88" width="4.16" height="4.16" fill="#0e1b33"/><rect x="951.92" y="980.88" width="4.16" height="4.16" fill="#0e1b33"/><rect x="964.4" y="985.04" width="4.16" height="4.16" fill="#0e1b33"/><rect x="976.88" y="989.2" width="4.16" height="4.16" fill="#0e1b33"/><rect x="947.76" y="989.2" width="4.16" height="4.16" fill="#0e1b33"/><rect x="985.2" y="947.6" width="4.16" height="4.16" fill="#0e1b33"/><rect x="993.52" y="955.92" width="4.16" height="4.16" fill="#0e1b33"/><rect x="985.2" y="964.24" width="4.16" height="4.16" fill="#0e1b33"/>
  </svg>