<svg xmlns="http://www.w3.org/2000/svg" viewBox="0 0 320 180"><ellipse cx="160" cy="162" rx="125" ry="11" fill="rgba(0,0,0,.12)"/><rect x="28" y="88" width="210" height="44" rx="18" fill="#d8463b"/><path d="M96,94 L108,54 L238,54 L230,94 Z" fill="#d8463b" stroke="#d8463b" stroke-width="8" stroke-linejoin="round"/><path d="M106,90 L118,62 L169.0,62 L169.0,90 Z" fill="#bfe0f5"/><path d="M177.0,90 L177.0,62 L232,62 L218,90 Z" fill="#bfe0f5"/><rect x="30" y="116" width="204" height="16" rx="8" fill="#bb372d" opacity=".55"/><line x1="173.0" y1="96" x2="173.0" y2="124" stroke="#bb372d" stroke-width="2.5" opacity=".7"/><rect x="183.0" y="104" width="14" height="4" rx="2" fill="#bb372d"/><rect x="228" y="98" width="9" height="13" rx="3" fill="#ffd24a"/><rect x="30" y="98" width="8" height="13" rx="3" fill="#ff6b5e"/><circle cx="98" cy="132" r="25" fill="#2b2f36"/><circle cx="98" cy="132" r="13" fill="#d4dae2"/><circle cx="98" cy="132" r="4.5" fill="#9aa4b2"/><circle cx="204" cy="132" r="25" fill="#2b2f36"/><circle cx="204" cy="132" r="13" fill="#d4dae2"/><circle cx="204" cy="132" r="4.5" fill="#9aa4b2"/></svg>