<svg xmlns="http://www.w3.org/2000/svg" viewBox="0 0 320 180"><ellipse cx="160" cy="162" rx="125" ry="11" fill="rgba(0,0,0,.12)"/><rect x="30" y="88" width="202" height="44" rx="18" fill="#e9dcc0"/><path d="M98,94 L112,60 L206,60 L224,94 Z" fill="#e9dcc0" stroke="#e9dcc0" stroke-width="8" stroke-linejoin="round"/><path d="M108,90 L122,68 L155.0,68 L155.0,90 Z" fill="#bfe0f5"/><path d="M163.0,90 L163.0,68 L200,68 L212,90 Z" fill="#bfe0f5"/><rect x="32" y="116" width="196" height="16" rx="8" fill="#d3c19a" opacity=".55"/><line x1="159.0" y1="96" x2="159.0" y2="124" stroke="#d3c19a" stroke-width="2.5" opacity=".7"/><rect x="169.0" y="104" width="14" height="4" rx="2" fill="#d3c19a"/><rect x="222" y="98" width="9" height="13" rx="3" fill="#ffd24a"/><rect x="32" y="98" width="8" height="13" rx="3" fill="#ff6b5e"/><circle cx="100" cy="132" r="25" fill="#2b2f36"/><circle cx="100" cy="132" r="13" fill="#d4dae2"/><circle cx="100" cy="132" r="4.5" fill="#9aa4b2"/><circle cx="198" cy="132" r="25" fill="#2b2f36"/><circle cx="198" cy="132" r="13" fill="#d4dae2"/><circle cx="198" cy="132" r="4.5" fill="#9aa4b2"/></svg>