<svg xmlns="http://www.w3.org/2000/svg" viewBox="0 0 320 180"><ellipse cx="160" cy="162" rx="125" ry="11" fill="rgba(0,0,0,.12)"/><rect x="20" y="88" width="224" height="44" rx="18" fill="#e9eef3"/><path d="M88,94 L92,44 L238,44 L236,94 Z" fill="#e9eef3" stroke="#e9eef3" stroke-width="8" stroke-linejoin="round"/><path d="M98,90 L102,52 L161.0,52 L161.0,90 Z" fill="#bfe0f5"/><path d="M169.0,90 L169.0,52 L232,52 L224,90 Z" fill="#bfe0f5"/><rect x="22" y="116" width="218" height="16" rx="8" fill="#cdd6e0" opacity=".55"/><line x1="165.0" y1="96" x2="165.0" y2="124" stroke="#cdd6e0" stroke-width="2.5" opacity=".7"/><rect x="175.0" y="104" width="14" height="4" rx="2" fill="#cdd6e0"/><rect x="234" y="98" width="9" height="13" rx="3" fill="#ffd24a"/><rect x="22" y="98" width="8" height="13" rx="3" fill="#ff6b5e"/><circle cx="90" cy="132" r="25" fill="#2b2f36"/><circle cx="90" cy="132" r="13" fill="#d4dae2"/><circle cx="90" cy="132" r="4.5" fill="#9aa4b2"/><circle cx="210" cy="132" r="25" fill="#2b2f36"/><circle cx="210" cy="132" r="13" fill="#d4dae2"/><circle cx="210" cy="132" r="4.5" fill="#9aa4b2"/></svg>