<svg xmlns="http://www.w3.org/2000/svg" viewBox="0 0 320 180"><ellipse cx="160" cy="162" rx="125" ry="11" fill="rgba(0,0,0,.12)"/><rect x="120" y="74" width="172" height="40" rx="6" fill="#5c9bd1"/><rect x="26" y="96" width="266" height="34" rx="14" fill="#7fb6e0"/><path d="M40,96 L40,64 Q40,56 50,56 L104,56 Q116,56 120,70 L120,96 Z" fill="#7fb6e0" stroke="#7fb6e0" stroke-width="6" stroke-linejoin="round"/><path d="M52,66 L100,66 Q108,66 110,80 L60,80 Q52,80 52,72 Z" fill="#bfe0f5"/><rect x="126" y="78" width="160" height="30" rx="4" fill="#7fb6e0" opacity=".55"/><rect x="284" y="100" width="8" height="16" rx="3" fill="#ffd24a"/><circle cx="78" cy="132" r="25" fill="#2b2f36"/><circle cx="78" cy="132" r="13" fill="#d4dae2"/><circle cx="78" cy="132" r="4.5" fill="#9aa4b2"/><circle cx="244" cy="132" r="25" fill="#2b2f36"/><circle cx="244" cy="132" r="13" fill="#d4dae2"/><circle cx="244" cy="132" r="4.5" fill="#9aa4b2"/></svg>