<svg xmlns="http://www.w3.org/2000/svg" viewBox="0 0 320 180"><ellipse cx="160" cy="162" rx="125" ry="11" fill="rgba(0,0,0,.12)"/><rect x="24" y="88" width="216" height="44" rx="18" fill="#33404f"/><path d="M92,94 L100,46 L222,46 L232,94 Z" fill="#33404f" stroke="#33404f" stroke-width="8" stroke-linejoin="round"/><path d="M102,90 L110,54 L157.0,54 L157.0,90 Z" fill="#bfe0f5"/><path d="M165.0,90 L165.0,54 L216,54 L220,90 Z" fill="#bfe0f5"/><rect x="26" y="116" width="210" height="16" rx="8" fill="#222c38" opacity=".55"/><line x1="161.0" y1="96" x2="161.0" y2="124" stroke="#222c38" stroke-width="2.5" opacity=".7"/><rect x="171.0" y="104" width="14" height="4" rx="2" fill="#222c38"/><rect x="230" y="98" width="9" height="13" rx="3" fill="#ffd24a"/><rect x="26" y="98" width="8" height="13" rx="3" fill="#ff6b5e"/><circle cx="94" cy="132" r="25" fill="#2b2f36"/><circle cx="94" cy="132" r="13" fill="#d4dae2"/><circle cx="94" cy="132" r="4.5" fill="#9aa4b2"/><circle cx="206" cy="132" r="25" fill="#2b2f36"/><circle cx="206" cy="132" r="13" fill="#d4dae2"/><circle cx="206" cy="132" r="4.5" fill="#9aa4b2"/></svg>