<svg xmlns="http://www.w3.org/2000/svg" viewBox="0 0 640 400">
<defs>
<linearGradient id="sky" x1="0" y1="0" x2="0" y2="1">
<stop offset="0" stop-color="#fff3e2"/><stop offset="1" stop-color="#ffe0bf"/></linearGradient>
<linearGradient id="road" x1="0" y1="0" x2="0" y2="1">
<stop offset="0" stop-color="#eef2f7"/><stop offset="1" stop-color="#dde4ee"/></linearGradient>
</defs>
<rect width="640" height="400" rx="16" fill="url(#sky)"/>
<circle cx="540" cy="86" r="50" fill="#fff" opacity=".55"/>
<!-- city silhouette -->
<g fill="#f3b271" opacity=".55">
<rect x="40" y="150" width="46" height="120"/><rect x="92" y="120" width="34" height="150"/>
<rect x="132" y="165" width="40" height="105"/><rect x="180" y="135" width="30" height="135"/>
<rect x="216" y="170" width="48" height="100"/><rect x="300" y="128" width="36" height="142"/>
<rect x="344" y="160" width="44" height="110"/><rect x="398" y="142" width="30" height="128"/>
<rect x="436" y="170" width="50" height="100"/><rect x="496" y="150" width="40" height="120"/>
<rect x="544" y="168" width="44" height="102"/>
</g>
<g fill="#fff" opacity=".5">
<rect x="100" y="135" width="8" height="10"/><rect x="112" y="135" width="8" height="10"/>
<rect x="188" y="150" width="7" height="9"/><rect x="308" y="143" width="8" height="10"/>
<rect x="504" y="165" width="8" height="10"/></g>
<!-- ground -->
<rect x="0" y="262" width="640" height="138" fill="url(#road)"/>
<rect x="0" y="262" width="640" height="6" fill="#cdd6e2"/>
<g stroke="#ffffff" stroke-width="6" stroke-dasharray="34 26" opacity=".9"><line x1="0" y1="344" x2="640" y2="344"/></g>
<!-- car -->
<svg x="150" y="150" width="380" height="214" viewBox="0 0 320 180"><ellipse cx="160" cy="162" rx="125" ry="11" fill="rgba(0,0,0,.12)"/><rect x="28" y="88" width="208" height="44" rx="18" fill="#c9d2dc"/><path d="M96,94 L108,58 L210,58 L228,94 Z" fill="#c9d2dc" stroke="#c9d2dc" stroke-width="8" stroke-linejoin="round"/><path d="M106,90 L118,66 L155.0,66 L155.0,90 Z" fill="#bfe0f5"/><path d="M163.0,90 L163.0,66 L204,66 L216,90 Z" fill="#bfe0f5"/><rect x="30" y="116" width="202" height="16" rx="8" fill="#aab6c4" opacity=".55"/><line x1="159.0" y1="96" x2="159.0" y2="124" stroke="#aab6c4" stroke-width="2.5" opacity=".7"/><rect x="169.0" y="104" width="14" height="4" rx="2" fill="#aab6c4"/><rect x="226" y="98" width="9" height="13" rx="3" fill="#ffd24a"/><rect x="30" y="98" width="8" height="13" rx="3" fill="#ff6b5e"/><circle cx="98" cy="132" r="25" fill="#2b2f36"/><circle cx="98" cy="132" r="13" fill="#d4dae2"/><circle cx="98" cy="132" r="4.5" fill="#9aa4b2"/><circle cx="202" cy="132" r="25" fill="#2b2f36"/><circle cx="202" cy="132" r="13" fill="#d4dae2"/><circle cx="202" cy="132" r="4.5" fill="#9aa4b2"/></svg>
</svg>