<svg xmlns="http://www.w3.org/2000/svg" width="1180" height="896" viewBox="0 0 1180 896">
<rect width="1180" height="896" fill="#ffffff"/>
<path d="M 180 465.0 C 215.0 465.0, 215.0 91.0, 250 91.0" fill="none" stroke="#94a3b8" stroke-width="2" opacity="0.55"/>
<path d="M 460 91.0 C 490.0 91.0, 490.0 57.0, 520 57.0" fill="none" stroke="#0f766e" stroke-width="2" opacity="0.55"/>
<path d="M 460 91.0 C 490.0 91.0, 490.0 91.0, 520 91.0" fill="none" stroke="#0f766e" stroke-width="2" opacity="0.55"/>
<path d="M 460 91.0 C 490.0 91.0, 490.0 125.0, 520 125.0" fill="none" stroke="#0f766e" stroke-width="2" opacity="0.55"/>
<path d="M 180 465.0 C 215.0 465.0, 215.0 176.0, 250 176.0" fill="none" stroke="#94a3b8" stroke-width="2" opacity="0.55"/>
<path d="M 460 176.0 C 490.0 176.0, 490.0 159.0, 520 159.0" fill="none" stroke="#5b3df5" stroke-width="2" opacity="0.55"/>
<path d="M 460 176.0 C 490.0 176.0, 490.0 193.0, 520 193.0" fill="none" stroke="#5b3df5" stroke-width="2" opacity="0.55"/>
<path d="M 180 465.0 C 215.0 465.0, 215.0 329.0, 250 329.0" fill="none" stroke="#94a3b8" stroke-width="2" opacity="0.55"/>
<path d="M 460 329.0 C 490.0 329.0, 490.0 227.0, 520 227.0" fill="none" stroke="#0f766e" stroke-width="2" opacity="0.55"/>
<path d="M 460 329.0 C 490.0 329.0, 490.0 261.0, 520 261.0" fill="none" stroke="#0f766e" stroke-width="2" opacity="0.55"/>
<path d="M 460 329.0 C 490.0 329.0, 490.0 295.0, 520 295.0" fill="none" stroke="#0f766e" stroke-width="2" opacity="0.55"/>
<path d="M 460 329.0 C 490.0 329.0, 490.0 329.0, 520 329.0" fill="none" stroke="#0f766e" stroke-width="2" opacity="0.55"/>
<path d="M 460 329.0 C 490.0 329.0, 490.0 363.0, 520 363.0" fill="none" stroke="#0f766e" stroke-width="2" opacity="0.55"/>
<path d="M 460 329.0 C 490.0 329.0, 490.0 397.0, 520 397.0" fill="none" stroke="#0f766e" stroke-width="2" opacity="0.55"/>
<path d="M 460 329.0 C 490.0 329.0, 490.0 431.0, 520 431.0" fill="none" stroke="#0f766e" stroke-width="2" opacity="0.55"/>
<path d="M 180 465.0 C 215.0 465.0, 215.0 499.0, 250 499.0" fill="none" stroke="#94a3b8" stroke-width="2" opacity="0.55"/>
<path d="M 460 499.0 C 490.0 499.0, 490.0 465.0, 520 465.0" fill="none" stroke="#5b3df5" stroke-width="2" opacity="0.55"/>
<path d="M 460 499.0 C 490.0 499.0, 490.0 499.0, 520 499.0" fill="none" stroke="#5b3df5" stroke-width="2" opacity="0.55"/>
<path d="M 460 499.0 C 490.0 499.0, 490.0 533.0, 520 533.0" fill="none" stroke="#5b3df5" stroke-width="2" opacity="0.55"/>
<path d="M 180 465.0 C 215.0 465.0, 215.0 635.0, 250 635.0" fill="none" stroke="#94a3b8" stroke-width="2" opacity="0.55"/>
<path d="M 460 635.0 C 490.0 635.0, 490.0 567.0, 520 567.0" fill="none" stroke="#0f766e" stroke-width="2" opacity="0.55"/>
<path d="M 460 635.0 C 490.0 635.0, 490.0 601.0, 520 601.0" fill="none" stroke="#0f766e" stroke-width="2" opacity="0.55"/>
<path d="M 460 635.0 C 490.0 635.0, 490.0 635.0, 520 635.0" fill="none" stroke="#0f766e" stroke-width="2" opacity="0.55"/>
<path d="M 460 635.0 C 490.0 635.0, 490.0 669.0, 520 669.0" fill="none" stroke="#0f766e" stroke-width="2" opacity="0.55"/>
<path d="M 460 635.0 C 490.0 635.0, 490.0 703.0, 520 703.0" fill="none" stroke="#0f766e" stroke-width="2" opacity="0.55"/>
<path d="M 180 465.0 C 215.0 465.0, 215.0 737.0, 250 737.0" fill="none" stroke="#94a3b8" stroke-width="2" opacity="0.55"/>
<path d="M 460 737.0 C 490.0 737.0, 490.0 737.0, 520 737.0" fill="none" stroke="#5b3df5" stroke-width="2" opacity="0.55"/>
<path d="M 180 465.0 C 215.0 465.0, 215.0 788.0, 250 788.0" fill="none" stroke="#94a3b8" stroke-width="2" opacity="0.55"/>
<path d="M 460 788.0 C 490.0 788.0, 490.0 771.0, 520 771.0" fill="none" stroke="#5b3df5" stroke-width="2" opacity="0.55"/>
<path d="M 460 788.0 C 490.0 788.0, 490.0 805.0, 520 805.0" fill="none" stroke="#5b3df5" stroke-width="2" opacity="0.55"/>
<path d="M 180 465.0 C 215.0 465.0, 215.0 839.0, 250 839.0" fill="none" stroke="#94a3b8" stroke-width="2" opacity="0.55"/>
<path d="M 460 839.0 C 490.0 839.0, 490.0 839.0, 520 839.0" fill="none" stroke="#b45309" stroke-width="2" opacity="0.55"/>
<rect x="30" y="439.0" width="150" height="52" rx="9" ry="9" fill="#0f3460" stroke="#0f3460" stroke-width="1.5"/><text x="42" y="470.0" font-family="Hiragino Sans, Meiryo, sans-serif" font-size="13" font-weight="700" fill="#111"></text>
<text x="105.0" y="461.0" text-anchor="middle" font-family="Hiragino Sans, Meiryo, sans-serif" font-size="15" font-weight="700" fill="#fff">カーメル</text>
<text x="105.0" y="481.0" text-anchor="middle" font-family="Hiragino Sans, Meiryo, sans-serif" font-size="13" font-weight="700" fill="#cbd5e1">管理</text>
<rect x="250" y="74.0" width="210" height="34" rx="9" ry="9" fill="#0f766e" stroke="#0f766e" stroke-width="1.5"/><text x="262" y="96.0" font-family="Hiragino Sans, Meiryo, sans-serif" font-size="13" font-weight="700" fill="#fff">かんたんホーム</text>
<rect x="250" y="159.0" width="210" height="34" rx="9" ry="9" fill="#5b3df5" stroke="#5b3df5" stroke-width="1.5"/><text x="262" y="181.0" font-family="Hiragino Sans, Meiryo, sans-serif" font-size="13" font-weight="700" fill="#fff">記事生成</text>
<rect x="250" y="312.0" width="210" height="34" rx="9" ry="9" fill="#0f766e" stroke="#0f766e" stroke-width="1.5"/><text x="262" y="334.0" font-family="Hiragino Sans, Meiryo, sans-serif" font-size="13" font-weight="700" fill="#fff">自動生成</text>
<rect x="250" y="482.0" width="210" height="34" rx="9" ry="9" fill="#5b3df5" stroke="#5b3df5" stroke-width="1.5"/><text x="262" y="504.0" font-family="Hiragino Sans, Meiryo, sans-serif" font-size="13" font-weight="700" fill="#fff">SNS投稿</text>
<rect x="250" y="618.0" width="210" height="34" rx="9" ry="9" fill="#0f766e" stroke="#0f766e" stroke-width="1.5"/><text x="262" y="640.0" font-family="Hiragino Sans, Meiryo, sans-serif" font-size="13" font-weight="700" fill="#fff">その他掲載ページ（MEO対策）</text>
<rect x="250" y="720.0" width="210" height="34" rx="9" ry="9" fill="#5b3df5" stroke="#5b3df5" stroke-width="1.5"/><text x="262" y="742.0" font-family="Hiragino Sans, Meiryo, sans-serif" font-size="13" font-weight="700" fill="#fff">生成履歴</text>
<rect x="250" y="771.0" width="210" height="34" rx="9" ry="9" fill="#5b3df5" stroke="#5b3df5" stroke-width="1.5"/><text x="262" y="793.0" font-family="Hiragino Sans, Meiryo, sans-serif" font-size="13" font-weight="700" fill="#fff">設定</text>
<rect x="250" y="822.0" width="210" height="34" rx="9" ry="9" fill="#b45309" stroke="#b45309" stroke-width="1.5"/><text x="262" y="844.0" font-family="Hiragino Sans, Meiryo, sans-serif" font-size="13" font-weight="700" fill="#fff">メディア記事（保存先）</text>
<rect x="520" y="44" width="560" height="26" rx="9" ry="9" fill="#e6f4f1" stroke="#0f766e" stroke-width="1.5"/><text x="532" y="62.0" font-family="Hiragino Sans, Meiryo, sans-serif" font-size="12.5" font-weight="400" fill="#1f2937">今の状態（ON/次回/残り/記事数）</text>
<rect x="520" y="78" width="560" height="26" rx="9" ry="9" fill="#e6f4f1" stroke="#0f766e" stroke-width="1.5"/><text x="532" y="96.0" font-family="Hiragino Sans, Meiryo, sans-serif" font-size="12.5" font-weight="400" fill="#1f2937">やりたいこと（大ボタンで移動）</text>
<rect x="520" y="112" width="560" height="26" rx="9" ry="9" fill="#e6f4f1" stroke="#0f766e" stroke-width="1.5"/><text x="532" y="130.0" font-family="Hiragino Sans, Meiryo, sans-serif" font-size="12.5" font-weight="400" fill="#1f2937">メニューの使い方ガイド</text>
<rect x="520" y="146" width="560" height="26" rx="9" ry="9" fill="#ede9fe" stroke="#5b3df5" stroke-width="1.5"/><text x="532" y="164.0" font-family="Hiragino Sans, Meiryo, sans-serif" font-size="12.5" font-weight="400" fill="#1f2937">タイトル・カテゴリ・地域を入力</text>
<rect x="520" y="180" width="560" height="26" rx="9" ry="9" fill="#ede9fe" stroke="#5b3df5" stroke-width="1.5"/><text x="532" y="198.0" font-family="Hiragino Sans, Meiryo, sans-serif" font-size="12.5" font-weight="400" fill="#1f2937">記事を生成（手動で1本）</text>
<rect x="520" y="214" width="560" height="26" rx="9" ry="9" fill="#e6f4f1" stroke="#0f766e" stroke-width="1.5"/><text x="532" y="232.0" font-family="Hiragino Sans, Meiryo, sans-serif" font-size="12.5" font-weight="400" fill="#1f2937">頻度：毎日／週2／毎週</text>
<rect x="520" y="248" width="560" height="26" rx="9" ry="9" fill="#e6f4f1" stroke="#0f766e" stroke-width="1.5"/><text x="532" y="266.0" font-family="Hiragino Sans, Meiryo, sans-serif" font-size="12.5" font-weight="400" fill="#1f2937">テーマキュー（作る一覧）</text>
<rect x="520" y="282" width="560" height="26" rx="9" ry="9" fill="#e6f4f1" stroke="#0f766e" stroke-width="1.5"/><text x="532" y="300.0" font-family="Hiragino Sans, Meiryo, sans-serif" font-size="12.5" font-weight="400" fill="#1f2937">画像：アイキャッチ／バナー／本文</text>
<rect x="520" y="316" width="560" height="26" rx="9" ry="9" fill="#e6f4f1" stroke="#0f766e" stroke-width="1.5"/><text x="532" y="334.0" font-family="Hiragino Sans, Meiryo, sans-serif" font-size="12.5" font-weight="400" fill="#1f2937">CTAボタンURL 自動修正</text>
<rect x="520" y="350" width="560" height="26" rx="9" ry="9" fill="#e6f4f1" stroke="#0f766e" stroke-width="1.5"/><text x="532" y="368.0" font-family="Hiragino Sans, Meiryo, sans-serif" font-size="12.5" font-weight="400" fill="#1f2937">下書き保存／自動公開</text>
<rect x="520" y="384" width="560" height="26" rx="9" ry="9" fill="#e6f4f1" stroke="#0f766e" stroke-width="1.5"/><text x="532" y="402.0" font-family="Hiragino Sans, Meiryo, sans-serif" font-size="12.5" font-weight="400" fill="#1f2937">Google自動投稿（任意）</text>
<rect x="520" y="418" width="560" height="26" rx="9" ry="9" fill="#e6f4f1" stroke="#0f766e" stroke-width="1.5"/><text x="532" y="436.0" font-family="Hiragino Sans, Meiryo, sans-serif" font-size="12.5" font-weight="400" fill="#1f2937">今すぐ1件だけ生成（テスト）</text>
<rect x="520" y="452" width="560" height="26" rx="9" ry="9" fill="#ede9fe" stroke="#5b3df5" stroke-width="1.5"/><text x="532" y="470.0" font-family="Hiragino Sans, Meiryo, sans-serif" font-size="12.5" font-weight="400" fill="#1f2937">記事を選ぶ</text>
<rect x="520" y="486" width="560" height="26" rx="9" ry="9" fill="#ede9fe" stroke="#5b3df5" stroke-width="1.5"/><text x="532" y="504.0" font-family="Hiragino Sans, Meiryo, sans-serif" font-size="12.5" font-weight="400" fill="#1f2937">SNS文を自動生成（AI）</text>
<rect x="520" y="520" width="560" height="26" rx="9" ry="9" fill="#ede9fe" stroke="#5b3df5" stroke-width="1.5"/><text x="532" y="538.0" font-family="Hiragino Sans, Meiryo, sans-serif" font-size="12.5" font-weight="400" fill="#1f2937">投稿先：FB／IG／LINE／Threads／Google</text>
<rect x="520" y="554" width="560" height="26" rx="9" ry="9" fill="#e6f4f1" stroke="#0f766e" stroke-width="1.5"/><text x="532" y="572.0" font-family="Hiragino Sans, Meiryo, sans-serif" font-size="12.5" font-weight="400" fill="#1f2937">地図検索：Google／Yahoo／Apple／Bing</text>
<rect x="520" y="588" width="560" height="26" rx="9" ry="9" fill="#e6f4f1" stroke="#0f766e" stroke-width="1.5"/><text x="532" y="606.0" font-family="Hiragino Sans, Meiryo, sans-serif" font-size="12.5" font-weight="400" fill="#1f2937">地域ポータル：エキテン／iタウンページ</text>
<rect x="520" y="622" width="560" height="26" rx="9" ry="9" fill="#e6f4f1" stroke="#0f766e" stroke-width="1.5"/><text x="532" y="640.0" font-family="Hiragino Sans, Meiryo, sans-serif" font-size="12.5" font-weight="400" fill="#1f2937">中古車：カーセンサー／グーネット</text>
<rect x="520" y="656" width="560" height="26" rx="9" ry="9" fill="#e6f4f1" stroke="#0f766e" stroke-width="1.5"/><text x="532" y="674.0" font-family="Hiragino Sans, Meiryo, sans-serif" font-size="12.5" font-weight="400" fill="#1f2937">SNS：IG／FB／LINE／TikTok</text>
<rect x="520" y="690" width="560" height="26" rx="9" ry="9" fill="#e6f4f1" stroke="#0f766e" stroke-width="1.5"/><text x="532" y="708.0" font-family="Hiragino Sans, Meiryo, sans-serif" font-size="12.5" font-weight="400" fill="#1f2937">状況・メモ・進捗で管理</text>
<rect x="520" y="724" width="560" height="26" rx="9" ry="9" fill="#ede9fe" stroke="#5b3df5" stroke-width="1.5"/><text x="532" y="742.0" font-family="Hiragino Sans, Meiryo, sans-serif" font-size="12.5" font-weight="400" fill="#1f2937">いつ何を作ったかの記録</text>
<rect x="520" y="758" width="560" height="26" rx="9" ry="9" fill="#ede9fe" stroke="#5b3df5" stroke-width="1.5"/><text x="532" y="776.0" font-family="Hiragino Sans, Meiryo, sans-serif" font-size="12.5" font-weight="400" fill="#1f2937">OpenRouter APIキー</text>
<rect x="520" y="792" width="560" height="26" rx="9" ry="9" fill="#ede9fe" stroke="#5b3df5" stroke-width="1.5"/><text x="532" y="810.0" font-family="Hiragino Sans, Meiryo, sans-serif" font-size="12.5" font-weight="400" fill="#1f2937">ブランド設定（画像の雰囲気）</text>
<rect x="520" y="826" width="560" height="26" rx="9" ry="9" fill="#fdebd3" stroke="#b45309" stroke-width="1.5"/><text x="532" y="844.0" font-family="Hiragino Sans, Meiryo, sans-serif" font-size="12.5" font-weight="400" fill="#1f2937">作った記事の一覧・編集</text>
<rect x="250" y="858" width="14" height="14" rx="3" fill="#5b3df5"/><text x="270" y="870" font-family="sans-serif" font-size="12" fill="#444">本体プラグイン v5.7</text>
<rect x="420" y="858" width="14" height="14" rx="3" fill="#0f766e"/><text x="440" y="870" font-family="sans-serif" font-size="12" fill="#444">今回のアドオン（追加）</text>
<rect x="610" y="858" width="14" height="14" rx="3" fill="#b45309"/><text x="630" y="870" font-family="sans-serif" font-size="12" fill="#444">データ保存先</text>
</svg>