<?xml version="1.0" encoding="UTF-8" standalone="no"?>
<!DOCTYPE svg PUBLIC "-//W3C//DTD SVG 1.1//EN"
 "http://www.w3.org/Graphics/SVG/1.1/DTD/svg11.dtd">
<!-- Generated by graphviz version 2.43.0 (0)
 -->
<!-- Title: DEPLOY Pages: 1 -->
<svg width="1445pt" height="108pt"
 viewBox="0.00 0.00 1444.60 107.60" xmlns="http://www.w3.org/2000/svg" xmlns:xlink="http://www.w3.org/1999/xlink">
<g id="graph0" class="graph" transform="scale(1 1) rotate(0) translate(28.8 78.8)">
<title>DEPLOY</title>
<polygon fill="#ffffff" stroke="transparent" points="-28.8,28.8 -28.8,-78.8 1415.8,-78.8 1415.8,28.8 -28.8,28.8"/>
<!-- s1 -->
<g id="node1" class="node">
<title>s1</title>
<path fill="#dbeafe" stroke="#ffffff" d="M94,-44C94,-44 12,-44 12,-44 6,-44 0,-38 0,-32 0,-32 0,-18 0,-18 0,-12 6,-6 12,-6 12,-6 94,-6 94,-6 100,-6 106,-12 106,-18 106,-18 106,-32 106,-32 106,-38 100,-44 94,-44"/>
<text text-anchor="middle" x="53" y="-28.2" font-family="Noto Sans CJK JP" font-size="11.00">① 独自ドメイン</text>
<text text-anchor="middle" x="53" y="-16.2" font-family="Noto Sans CJK JP" font-size="11.00">取得・準備</text>
</g>
<!-- s2 -->
<g id="node2" class="node">
<title>s2</title>
<path fill="#bfdbfe" stroke="#ffffff" d="M276,-44C276,-44 161,-44 161,-44 155,-44 149,-38 149,-32 149,-32 149,-18 149,-18 149,-12 155,-6 161,-6 161,-6 276,-6 276,-6 282,-6 288,-12 288,-18 288,-18 288,-32 288,-32 288,-38 282,-44 276,-44"/>
<text text-anchor="middle" x="218.5" y="-28.2" font-family="Noto Sans CJK JP" font-size="11.00">② WPXにドメイン追加</text>
<text text-anchor="middle" x="218.5" y="-16.2" font-family="Noto Sans CJK JP" font-size="11.00">（ドメイン設定）</text>
</g>
<!-- s1&#45;&gt;s2 -->
<g id="edge1" class="edge">
<title>s1&#45;&gt;s2</title>
<path fill="none" stroke="#64748b" stroke-width="1.4" d="M106.18,-25C117.19,-25 129.03,-25 140.73,-25"/>
<polygon fill="#64748b" stroke="#64748b" stroke-width="1.4" points="140.8,-27.8 148.8,-25 140.8,-22.2 140.8,-27.8"/>
</g>
<!-- s3 -->
<g id="node3" class="node">
<title>s3</title>
<path fill="#c7d2fe" stroke="#ffffff" d="M458,-44C458,-44 343,-44 343,-44 337,-44 331,-38 331,-32 331,-32 331,-18 331,-18 331,-12 337,-6 343,-6 343,-6 458,-6 458,-6 464,-6 470,-12 470,-18 470,-18 470,-32 470,-32 470,-38 464,-44 458,-44"/>
<text text-anchor="middle" x="400.5" y="-28.2" font-family="Noto Sans CJK JP" font-size="11.00">③ ネームサーバー設定</text>
<text text-anchor="middle" x="400.5" y="-16.2" font-family="Noto Sans CJK JP" font-size="11.00">（レジストラ側）</text>
</g>
<!-- s2&#45;&gt;s3 -->
<g id="edge2" class="edge">
<title>s2&#45;&gt;s3</title>
<path fill="none" stroke="#64748b" stroke-width="1.4" d="M288.06,-25C299.34,-25 311.09,-25 322.55,-25"/>
<polygon fill="#64748b" stroke="#64748b" stroke-width="1.4" points="322.83,-27.8 330.83,-25 322.83,-22.2 322.83,-27.8"/>
</g>
<!-- s4 -->
<g id="node4" class="node">
<title>s4</title>
<path fill="#ddd6fe" stroke="#ffffff" d="M616,-44C616,-44 525,-44 525,-44 519,-44 513,-38 513,-32 513,-32 513,-18 513,-18 513,-12 519,-6 525,-6 525,-6 616,-6 616,-6 622,-6 628,-12 628,-18 628,-18 628,-32 628,-32 628,-38 622,-44 616,-44"/>
<text text-anchor="middle" x="570.5" y="-28.2" font-family="Noto Sans CJK JP" font-size="11.00">④ 無料独自SSL</text>
<text text-anchor="middle" x="570.5" y="-16.2" font-family="Noto Sans CJK JP" font-size="11.00">（Let&#39;s Encrypt）</text>
</g>
<!-- s3&#45;&gt;s4 -->
<g id="edge3" class="edge">
<title>s3&#45;&gt;s4</title>
<path fill="none" stroke="#64748b" stroke-width="1.4" d="M470.32,-25C481.69,-25 493.45,-25 504.72,-25"/>
<polygon fill="#64748b" stroke="#64748b" stroke-width="1.4" points="504.83,-27.8 512.83,-25 504.83,-22.2 504.83,-27.8"/>
</g>
<!-- s5 -->
<g id="node5" class="node">
<title>s5</title>
<path fill="#fae8ff" stroke="#ffffff" d="M773,-44C773,-44 683,-44 683,-44 677,-44 671,-38 671,-32 671,-32 671,-18 671,-18 671,-12 677,-6 683,-6 683,-6 773,-6 773,-6 779,-6 785,-12 785,-18 785,-18 785,-32 785,-32 785,-38 779,-44 773,-44"/>
<text text-anchor="middle" x="728" y="-28.2" font-family="Noto Sans CJK JP" font-size="11.00">⑤ WordPress</text>
<text text-anchor="middle" x="728" y="-16.2" font-family="Noto Sans CJK JP" font-size="11.00">簡単インストール</text>
</g>
<!-- s4&#45;&gt;s5 -->
<g id="edge4" class="edge">
<title>s4&#45;&gt;s5</title>
<path fill="none" stroke="#64748b" stroke-width="1.4" d="M628.08,-25C639.33,-25 651.22,-25 662.71,-25"/>
<polygon fill="#64748b" stroke="#64748b" stroke-width="1.4" points="662.98,-27.8 670.98,-25 662.98,-22.2 662.98,-27.8"/>
</g>
<!-- s6 -->
<g id="node6" class="node">
<title>s6</title>
<path fill="#fef3c7" stroke="#ffffff" d="M976,-50C976,-50 840,-50 840,-50 834,-50 828,-44 828,-38 828,-38 828,-12 828,-12 828,-6 834,0 840,0 840,0 976,0 976,0 982,0 988,-6 988,-12 988,-12 988,-38 988,-38 988,-44 982,-50 976,-50"/>
<text text-anchor="middle" x="908" y="-34.2" font-family="Noto Sans CJK JP" font-size="11.00">⑥ テーマ導入</text>
<text text-anchor="middle" x="908" y="-22.2" font-family="Noto Sans CJK JP" font-size="11.00">apprex&#45;theme.zip→有効化</text>
<text text-anchor="middle" x="908" y="-10.2" font-family="Noto Sans CJK JP" font-size="11.00">（自動構築）</text>
</g>
<!-- s5&#45;&gt;s6 -->
<g id="edge5" class="edge">
<title>s5&#45;&gt;s6</title>
<path fill="none" stroke="#64748b" stroke-width="1.4" d="M785.32,-25C796.33,-25 808.11,-25 819.85,-25"/>
<polygon fill="#64748b" stroke="#64748b" stroke-width="1.4" points="819.95,-27.8 827.95,-25 819.95,-22.2 819.95,-27.8"/>
</g>
<!-- s7 -->
<g id="node7" class="node">
<title>s7</title>
<path fill="#fee2e2" stroke="#ffffff" d="M1215,-44C1215,-44 1043,-44 1043,-44 1037,-44 1031,-38 1031,-32 1031,-32 1031,-18 1031,-18 1031,-12 1037,-6 1043,-6 1043,-6 1215,-6 1215,-6 1221,-6 1227,-12 1227,-18 1227,-18 1227,-32 1227,-32 1227,-38 1221,-44 1215,-44"/>
<text text-anchor="middle" x="1129" y="-28.2" font-family="Noto Sans CJK JP" font-size="11.00">⑦ 初期設定</text>
<text text-anchor="middle" x="1129" y="-16.2" font-family="Noto Sans CJK JP" font-size="11.00">パーマリンク/APIキー/SMTP/cron</text>
</g>
<!-- s6&#45;&gt;s7 -->
<g id="edge6" class="edge">
<title>s6&#45;&gt;s7</title>
<path fill="none" stroke="#64748b" stroke-width="1.4" d="M988.06,-25C999.31,-25 1011.03,-25 1022.68,-25"/>
<polygon fill="#64748b" stroke="#64748b" stroke-width="1.4" points="1022.73,-27.8 1030.73,-25 1022.73,-22.2 1022.73,-27.8"/>
</g>
<!-- s8 -->
<g id="node8" class="node">
<title>s8</title>
<path fill="#dcfce7" stroke="#ffffff" d="M1375,-44C1375,-44 1282,-44 1282,-44 1276,-44 1270,-38 1270,-32 1270,-32 1270,-18 1270,-18 1270,-12 1276,-6 1282,-6 1282,-6 1375,-6 1375,-6 1381,-6 1387,-12 1387,-18 1387,-18 1387,-32 1387,-32 1387,-38 1381,-44 1375,-44"/>
<text text-anchor="middle" x="1328.5" y="-28.2" font-family="Noto Sans CJK JP" font-size="11.00">⑧ 公開・DNS切替</text>
<text text-anchor="middle" x="1328.5" y="-16.2" font-family="Noto Sans CJK JP" font-size="11.00">本番反映</text>
</g>
<!-- s7&#45;&gt;s8 -->
<g id="edge7" class="edge">
<title>s7&#45;&gt;s8</title>
<path fill="none" stroke="#64748b" stroke-width="1.4" d="M1227.01,-25C1238.79,-25 1250.6,-25 1261.77,-25"/>
<polygon fill="#64748b" stroke="#64748b" stroke-width="1.4" points="1261.78,-27.8 1269.78,-25 1261.78,-22.2 1261.78,-27.8"/>
</g>
</g>
</svg>
