<?xml version="1.0" encoding="UTF-8" standalone="no"?>
<!DOCTYPE svg PUBLIC "-//W3C//DTD SVG 1.1//EN"
 "http://www.w3.org/Graphics/SVG/1.1/DTD/svg11.dtd">
<!-- Generated by graphviz version 2.43.0 (0)
 -->
<!-- Title: APPREX Pages: 1 -->
<svg width="710pt" height="1469pt"
 viewBox="0.00 0.00 709.60 1468.60" xmlns="http://www.w3.org/2000/svg" xmlns:xlink="http://www.w3.org/1999/xlink">
<g id="graph0" class="graph" transform="scale(1 1) rotate(0) translate(28.8 1439.8)">
<title>APPREX</title>
<polygon fill="#ffffff" stroke="transparent" points="-28.8,28.8 -28.8,-1439.8 680.8,-1439.8 680.8,28.8 -28.8,28.8"/>
<!-- root -->
<g id="node1" class="node">
<title>root</title>
<path fill="#1e3a8a" stroke="#ffffff" stroke-width="0" d="M140,-754C140,-754 12,-754 12,-754 6,-754 0,-748 0,-742 0,-742 0,-720 0,-720 0,-714 6,-708 12,-708 12,-708 140,-708 140,-708 146,-708 152,-714 152,-720 152,-720 152,-742 152,-742 152,-748 146,-754 140,-754"/>
<text text-anchor="middle" x="76" y="-736.2" font-family="Noto Sans CJK JP" font-size="16.00" fill="#ffffff">APPREX</text>
<text text-anchor="middle" x="76" y="-718.2" font-family="Noto Sans CJK JP" font-size="16.00" fill="#ffffff">WordPress サイト</text>
</g>
<!-- b1 -->
<g id="node2" class="node">
<title>b1</title>
<path fill="#3b82f6" stroke="#ffffff" d="M309,-1321C309,-1321 249,-1321 249,-1321 243,-1321 237,-1315 237,-1309 237,-1309 237,-1297 237,-1297 237,-1291 243,-1285 249,-1285 249,-1285 309,-1285 309,-1285 315,-1285 321,-1291 321,-1297 321,-1297 321,-1309 321,-1309 321,-1315 315,-1321 309,-1321"/>
<text text-anchor="middle" x="279" y="-1299.6" font-family="Noto Sans CJK JP" font-size="13.00" fill="#ffffff">サイト構成</text>
</g>
<!-- root&#45;&gt;b1 -->
<g id="edge1" class="edge">
<title>root&#45;&gt;b1</title>
<path fill="none" stroke="#9aa3bd" stroke-width="1.3" d="M78.87,-754.01C123.64,-1113.18 128.03,-1129.34 263.23,-1284.89"/>
</g>
<!-- b2 -->
<g id="node3" class="node">
<title>b2</title>
<path fill="#0ea5e9" stroke="#ffffff" d="M303,-1144C303,-1144 255,-1144 255,-1144 249,-1144 243,-1138 243,-1132 243,-1132 243,-1120 243,-1120 243,-1114 249,-1108 255,-1108 255,-1108 303,-1108 303,-1108 309,-1108 315,-1114 315,-1120 315,-1120 315,-1132 315,-1132 315,-1138 309,-1144 303,-1144"/>
<text text-anchor="middle" x="279" y="-1122.6" font-family="Noto Sans CJK JP" font-size="13.00" fill="#ffffff">デザイン</text>
</g>
<!-- root&#45;&gt;b2 -->
<g id="edge2" class="edge">
<title>root&#45;&gt;b2</title>
<path fill="none" stroke="#9aa3bd" stroke-width="1.3" d="M80.46,-754.17C125.87,-989.44 132.11,-1005 257.01,-1107.94"/>
</g>
<!-- b3 -->
<g id="node4" class="node">
<title>b3</title>
<path fill="#10b981" stroke="#ffffff" d="M322,-973C322,-973 236,-973 236,-973 230,-973 224,-967 224,-961 224,-961 224,-949 224,-949 224,-943 230,-937 236,-937 236,-937 322,-937 322,-937 328,-937 334,-943 334,-949 334,-949 334,-961 334,-961 334,-967 328,-973 322,-973"/>
<text text-anchor="middle" x="279" y="-951.6" font-family="Noto Sans CJK JP" font-size="13.00" fill="#ffffff">コンテンツ管理</text>
</g>
<!-- root&#45;&gt;b3 -->
<g id="edge3" class="edge">
<title>root&#45;&gt;b3</title>
<path fill="none" stroke="#9aa3bd" stroke-width="1.3" d="M84.74,-754.38C128.79,-871.6 139.13,-885.98 242.14,-936.98"/>
</g>
<!-- b4 -->
<g id="node5" class="node">
<title>b4</title>
<path fill="#8b5cf6" stroke="#ffffff" d="M309,-801C309,-801 249,-801 249,-801 243,-801 237,-795 237,-789 237,-789 237,-777 237,-777 237,-771 243,-765 249,-765 249,-765 309,-765 309,-765 315,-765 321,-771 321,-777 321,-777 321,-789 321,-789 321,-795 315,-801 309,-801"/>
<text text-anchor="middle" x="279" y="-779.6" font-family="Noto Sans CJK JP" font-size="13.00" fill="#ffffff">接客・集客</text>
</g>
<!-- root&#45;&gt;b4 -->
<g id="edge4" class="edge">
<title>root&#45;&gt;b4</title>
<path fill="none" stroke="#9aa3bd" stroke-width="1.3" d="M113.74,-754.03C141.71,-768.9 164.94,-772.76 236.74,-779.28"/>
</g>
<!-- b5 -->
<g id="node6" class="node">
<title>b5</title>
<path fill="#f59e0b" stroke="#ffffff" d="M322,-698C322,-698 236,-698 236,-698 230,-698 224,-692 224,-686 224,-686 224,-674 224,-674 224,-668 230,-662 236,-662 236,-662 322,-662 322,-662 328,-662 334,-668 334,-674 334,-674 334,-686 334,-686 334,-692 328,-698 322,-698"/>
<text text-anchor="middle" x="279" y="-676.6" font-family="Noto Sans CJK JP" font-size="13.00" fill="#ffffff">コンバージョン</text>
</g>
<!-- root&#45;&gt;b5 -->
<g id="edge5" class="edge">
<title>root&#45;&gt;b5</title>
<path fill="none" stroke="#9aa3bd" stroke-width="1.3" d="M136.76,-707.98C155.96,-702.59 180.13,-697.77 223.85,-689.86"/>
</g>
<!-- b6 -->
<g id="node7" class="node">
<title>b6</title>
<path fill="#ef4444" stroke="#ffffff" d="M315.5,-531C315.5,-531 242.5,-531 242.5,-531 236.5,-531 230.5,-525 230.5,-519 230.5,-519 230.5,-507 230.5,-507 230.5,-501 236.5,-495 242.5,-495 242.5,-495 315.5,-495 315.5,-495 321.5,-495 327.5,-501 327.5,-507 327.5,-507 327.5,-519 327.5,-519 327.5,-525 321.5,-531 315.5,-531"/>
<text text-anchor="middle" x="279" y="-509.6" font-family="Noto Sans CJK JP" font-size="13.00" fill="#ffffff">メール自動化</text>
</g>
<!-- root&#45;&gt;b6 -->
<g id="edge6" class="edge">
<title>root&#45;&gt;b6</title>
<path fill="none" stroke="#9aa3bd" stroke-width="1.3" d="M84.37,-707.73C122.49,-602.53 132.97,-589.66 244.34,-531.09"/>
</g>
<!-- b7 -->
<g id="node8" class="node">
<title>b7</title>
<path fill="#0d9488" stroke="#ffffff" d="M303,-355C303,-355 255,-355 255,-355 249,-355 243,-349 243,-343 243,-343 243,-331 243,-331 243,-325 249,-319 255,-319 255,-319 303,-319 303,-319 309,-319 315,-325 315,-331 315,-331 315,-343 315,-343 315,-349 309,-355 303,-355"/>
<text text-anchor="middle" x="279" y="-333.6" font-family="Noto Sans CJK JP" font-size="13.00" fill="#ffffff">管理画面</text>
</g>
<!-- root&#45;&gt;b7 -->
<g id="edge7" class="edge">
<title>root&#45;&gt;b7</title>
<path fill="none" stroke="#9aa3bd" stroke-width="1.3" d="M79.83,-707.74C117.6,-479.1 123.74,-464.05 256.57,-355.3"/>
</g>
<!-- b8 -->
<g id="node9" class="node">
<title>b8</title>
<path fill="#475569" stroke="#ffffff" d="M303,-159C303,-159 255,-159 255,-159 249,-159 243,-153 243,-147 243,-147 243,-135 243,-135 243,-129 249,-123 255,-123 255,-123 303,-123 303,-123 309,-123 315,-129 315,-135 315,-135 315,-147 315,-147 315,-153 309,-159 303,-159"/>
<text text-anchor="middle" x="279" y="-137.6" font-family="Noto Sans CJK JP" font-size="13.00" fill="#ffffff">技術基盤</text>
</g>
<!-- root&#45;&gt;b8 -->
<g id="edge8" class="edge">
<title>root&#45;&gt;b8</title>
<path fill="none" stroke="#9aa3bd" stroke-width="1.3" d="M78.37,-707.77C116.01,-339.66 120.18,-323.76 263.28,-159.07"/>
</g>
<!-- n11 -->
<g id="node10" class="node">
<title>n11</title>
<path fill="#dbeafe" stroke="#ffffff" d="M622.5,-1411C622.5,-1411 435.5,-1411 435.5,-1411 429.5,-1411 423.5,-1405 423.5,-1399 423.5,-1399 423.5,-1387 423.5,-1387 423.5,-1381 429.5,-1375 435.5,-1375 435.5,-1375 622.5,-1375 622.5,-1375 628.5,-1375 634.5,-1381 634.5,-1387 634.5,-1387 634.5,-1399 634.5,-1399 634.5,-1405 628.5,-1411 622.5,-1411"/>
<text text-anchor="middle" x="529" y="-1390.2" font-family="Noto Sans CJK JP" font-size="11.00">固定ページ（self&#45;seederで自動生成）</text>
</g>
<!-- b1&#45;&gt;n11 -->
<g id="edge9" class="edge">
<title>b1&#45;&gt;n11</title>
<path fill="none" stroke="#9aa3bd" stroke-width="1.3" d="M303.51,-1321.21C362.26,-1364.69 391.07,-1384.25 423.23,-1391.86"/>
</g>
<!-- n12 -->
<g id="node11" class="node">
<title>n12</title>
<path fill="#eff6ff" stroke="#ffffff" d="M621,-1362C621,-1362 437,-1362 437,-1362 431,-1362 425,-1356 425,-1350 425,-1350 425,-1316 425,-1316 425,-1310 431,-1304 437,-1304 437,-1304 621,-1304 621,-1304 627,-1304 633,-1310 633,-1316 633,-1316 633,-1350 633,-1350 633,-1356 627,-1362 621,-1362"/>
<text text-anchor="middle" x="529" y="-1348.2" font-family="Noto Sans CJK JP" font-size="11.00">HOME 12セクション</text>
<text text-anchor="middle" x="529" y="-1336.2" font-family="Noto Sans CJK JP" font-size="11.00">hero/stats/problem/solution/</text>
<text text-anchor="middle" x="529" y="-1324.2" font-family="Noto Sans CJK JP" font-size="11.00">features/functions/cases/instagram/</text>
<text text-anchor="middle" x="529" y="-1312.2" font-family="Noto Sans CJK JP" font-size="11.00">pricing/hp&#45;cta/faq/final&#45;cta</text>
</g>
<!-- b1&#45;&gt;n12 -->
<g id="edge10" class="edge">
<title>b1&#45;&gt;n12</title>
<path fill="none" stroke="#9aa3bd" stroke-width="1.3" d="M315.85,-1321.12C367.3,-1346.07 394.29,-1356.69 424.73,-1356.31"/>
</g>
<!-- n13 -->
<g id="node12" class="node">
<title>n13</title>
<path fill="#dbeafe" stroke="#ffffff" d="M595,-1291C595,-1291 463,-1291 463,-1291 457,-1291 451,-1285 451,-1279 451,-1279 451,-1267 451,-1267 451,-1261 457,-1255 463,-1255 463,-1255 595,-1255 595,-1255 601,-1255 607,-1261 607,-1267 607,-1267 607,-1279 607,-1279 607,-1285 601,-1291 595,-1291"/>
<text text-anchor="middle" x="529" y="-1270.2" font-family="Noto Sans CJK JP" font-size="11.00">グローバルナビ・フッター</text>
</g>
<!-- b1&#45;&gt;n13 -->
<g id="edge11" class="edge">
<title>b1&#45;&gt;n13</title>
<path fill="none" stroke="#9aa3bd" stroke-width="1.3" d="M321.19,-1314.02C401.7,-1334.29 420.88,-1331.31 495.9,-1291.04"/>
</g>
<!-- n21 -->
<g id="node13" class="node">
<title>n21</title>
<path fill="#e0f2fe" stroke="#ffffff" d="M604,-1242C604,-1242 454,-1242 454,-1242 448,-1242 442,-1236 442,-1230 442,-1230 442,-1218 442,-1218 442,-1212 448,-1206 454,-1206 454,-1206 604,-1206 604,-1206 610,-1206 616,-1212 616,-1218 616,-1218 616,-1230 616,-1230 616,-1236 610,-1242 604,-1242"/>
<text text-anchor="middle" x="529" y="-1227.2" font-family="Noto Sans CJK JP" font-size="11.00">配色：明るいブルー系（案A）</text>
<text text-anchor="middle" x="529" y="-1215.2" font-family="Noto Sans CJK JP" font-size="11.00">#3B82F6 / #10B981 / #F59E0B</text>
</g>
<!-- b2&#45;&gt;n21 -->
<g id="edge12" class="edge">
<title>b2&#45;&gt;n21</title>
<path fill="none" stroke="#9aa3bd" stroke-width="1.3" d="M302.93,-1144.21C373.83,-1198.03 402.03,-1217.17 442,-1222.98"/>
</g>
<!-- n22 -->
<g id="node14" class="node">
<title>n22</title>
<path fill="#e0f2fe" stroke="#ffffff" d="M606,-1193C606,-1193 452,-1193 452,-1193 446,-1193 440,-1187 440,-1181 440,-1181 440,-1169 440,-1169 440,-1163 446,-1157 452,-1157 452,-1157 606,-1157 606,-1157 612,-1157 618,-1163 618,-1169 618,-1169 618,-1181 618,-1181 618,-1187 612,-1193 606,-1193"/>
<text text-anchor="middle" x="529" y="-1172.2" font-family="Noto Sans CJK JP" font-size="11.00">フォント：ヒラギノ角ゴ / Noto</text>
</g>
<!-- b2&#45;&gt;n22 -->
<g id="edge13" class="edge">
<title>b2&#45;&gt;n22</title>
<path fill="none" stroke="#9aa3bd" stroke-width="1.3" d="M311.68,-1144.18C375.05,-1179.15 402.69,-1191.6 439.91,-1190.4"/>
</g>
<!-- n23 -->
<g id="node15" class="node">
<title>n23</title>
<path fill="#e0f2fe" stroke="#ffffff" d="M596.5,-1144C596.5,-1144 461.5,-1144 461.5,-1144 455.5,-1144 449.5,-1138 449.5,-1132 449.5,-1132 449.5,-1120 449.5,-1120 449.5,-1114 455.5,-1108 461.5,-1108 461.5,-1108 596.5,-1108 596.5,-1108 602.5,-1108 608.5,-1114 608.5,-1120 608.5,-1120 608.5,-1132 608.5,-1132 608.5,-1138 602.5,-1144 596.5,-1144"/>
<text text-anchor="middle" x="529" y="-1129.2" font-family="Noto Sans CJK JP" font-size="11.00">UI：ボタン/カード/タブ/</text>
<text text-anchor="middle" x="529" y="-1117.2" font-family="Noto Sans CJK JP" font-size="11.00">アコーディオン/カウンター</text>
</g>
<!-- b2&#45;&gt;n23 -->
<g id="edge14" class="edge">
<title>b2&#45;&gt;n23</title>
<path fill="none" stroke="#9aa3bd" stroke-width="1.3" d="M315.01,-1139.11C398.55,-1169.06 419.06,-1170.7 485.77,-1144.03"/>
</g>
<!-- n24 -->
<g id="node16" class="node">
<title>n24</title>
<path fill="#e0f2fe" stroke="#ffffff" d="M620.5,-1095C620.5,-1095 437.5,-1095 437.5,-1095 431.5,-1095 425.5,-1089 425.5,-1083 425.5,-1083 425.5,-1071 425.5,-1071 425.5,-1065 431.5,-1059 437.5,-1059 437.5,-1059 620.5,-1059 620.5,-1059 626.5,-1059 632.5,-1065 632.5,-1071 632.5,-1071 632.5,-1083 632.5,-1083 632.5,-1089 626.5,-1095 620.5,-1095"/>
<text text-anchor="middle" x="529" y="-1074.2" font-family="Noto Sans CJK JP" font-size="11.00">モバイルファースト / Lazy / リビール</text>
</g>
<!-- b2&#45;&gt;n24 -->
<g id="edge15" class="edge">
<title>b2&#45;&gt;n24</title>
<path fill="none" stroke="#9aa3bd" stroke-width="1.3" d="M315.21,-1132.75C405.13,-1148.99 422.31,-1145.21 500.84,-1095.14"/>
</g>
<!-- n31 -->
<g id="node17" class="node">
<title>n31</title>
<path fill="#d1fae5" stroke="#ffffff" d="M593,-1046C593,-1046 465,-1046 465,-1046 459,-1046 453,-1040 453,-1034 453,-1034 453,-1022 453,-1022 453,-1016 459,-1010 465,-1010 465,-1010 593,-1010 593,-1010 599,-1010 605,-1016 605,-1022 605,-1022 605,-1034 605,-1034 605,-1040 599,-1046 593,-1046"/>
<text text-anchor="middle" x="529" y="-1031.2" font-family="Noto Sans CJK JP" font-size="11.00">導入事例 CPT（case）</text>
<text text-anchor="middle" x="529" y="-1019.2" font-family="Noto Sans CJK JP" font-size="11.00">＋業種タクソノミー＋ACF</text>
</g>
<!-- b3&#45;&gt;n31 -->
<g id="edge16" class="edge">
<title>b3&#45;&gt;n31</title>
<path fill="none" stroke="#9aa3bd" stroke-width="1.3" d="M308.04,-973.13C383.01,-1019.72 410.59,-1034.2 452.89,-1034.7"/>
</g>
<!-- n32 -->
<g id="node18" class="node">
<title>n32</title>
<path fill="#d1fae5" stroke="#ffffff" d="M583.5,-997C583.5,-997 474.5,-997 474.5,-997 468.5,-997 462.5,-991 462.5,-985 462.5,-985 462.5,-973 462.5,-973 462.5,-967 468.5,-961 474.5,-961 474.5,-961 583.5,-961 583.5,-961 589.5,-961 595.5,-967 595.5,-973 595.5,-973 595.5,-985 595.5,-985 595.5,-991 589.5,-997 583.5,-997"/>
<text text-anchor="middle" x="529" y="-976.2" font-family="Noto Sans CJK JP" font-size="11.00">ブログ（標準の投稿）</text>
</g>
<!-- b3&#45;&gt;n32 -->
<g id="edge17" class="edge">
<title>b3&#45;&gt;n32</title>
<path fill="none" stroke="#9aa3bd" stroke-width="1.3" d="M321.03,-973.02C395.84,-1004.59 420.3,-1010.17 470.5,-997.06"/>
</g>
<!-- n33 -->
<g id="node19" class="node">
<title>n33</title>
<path fill="#d1fae5" stroke="#ffffff" d="M597,-948C597,-948 461,-948 461,-948 455,-948 449,-942 449,-936 449,-936 449,-924 449,-924 449,-918 455,-912 461,-912 461,-912 597,-912 597,-912 603,-912 609,-918 609,-924 609,-924 609,-936 609,-936 609,-942 603,-948 597,-948"/>
<text text-anchor="middle" x="529" y="-933.2" font-family="Noto Sans CJK JP" font-size="11.00">AI記事生成（OpenRouter）</text>
<text text-anchor="middle" x="529" y="-921.2" font-family="Noto Sans CJK JP" font-size="11.00">投稿 &gt; AI記事生成</text>
</g>
<!-- b3&#45;&gt;n33 -->
<g id="edge18" class="edge">
<title>b3&#45;&gt;n33</title>
<path fill="none" stroke="#9aa3bd" stroke-width="1.3" d="M334.09,-968.49C410.51,-986.15 431.22,-982.67 495.85,-948.11"/>
</g>
<!-- n41 -->
<g id="node20" class="node">
<title>n41</title>
<path fill="#ede9fe" stroke="#ffffff" d="M611,-899C611,-899 447,-899 447,-899 441,-899 435,-893 435,-887 435,-887 435,-875 435,-875 435,-869 441,-863 447,-863 447,-863 611,-863 611,-863 617,-863 623,-869 623,-875 623,-875 623,-887 623,-887 623,-893 617,-899 611,-899"/>
<text text-anchor="middle" x="529" y="-884.2" font-family="Noto Sans CJK JP" font-size="11.00">AIチャットボット</text>
<text text-anchor="middle" x="529" y="-872.2" font-family="Noto Sans CJK JP" font-size="11.00">（OpenRouter / REST プロキシ）</text>
</g>
<!-- b4&#45;&gt;n41 -->
<g id="edge19" class="edge">
<title>b4&#45;&gt;n41</title>
<path fill="none" stroke="#9aa3bd" stroke-width="1.3" d="M308.35,-801.13C372.92,-840.92 405.61,-860.1 434.76,-869.77"/>
</g>
<!-- n42 -->
<g id="node21" class="node">
<title>n42</title>
<path fill="#ede9fe" stroke="#ffffff" d="M583.5,-850C583.5,-850 474.5,-850 474.5,-850 468.5,-850 462.5,-844 462.5,-838 462.5,-838 462.5,-826 462.5,-826 462.5,-820 468.5,-814 474.5,-814 474.5,-814 583.5,-814 583.5,-814 589.5,-814 595.5,-820 595.5,-826 595.5,-826 595.5,-838 595.5,-838 595.5,-844 589.5,-850 583.5,-850"/>
<text text-anchor="middle" x="529" y="-835.2" font-family="Noto Sans CJK JP" font-size="11.00">チャット学習ナレッジ</text>
<text text-anchor="middle" x="529" y="-823.2" font-family="Noto Sans CJK JP" font-size="11.00">（管理画面で編集）</text>
</g>
<!-- b4&#45;&gt;n42 -->
<g id="edge20" class="edge">
<title>b4&#45;&gt;n42</title>
<path fill="none" stroke="#9aa3bd" stroke-width="1.3" d="M321.21,-800.53C397.14,-831.84 426.49,-841.79 462.24,-840.76"/>
</g>
<!-- n43 -->
<g id="node22" class="node">
<title>n43</title>
<path fill="#ede9fe" stroke="#ffffff" d="M633.5,-801C633.5,-801 424.5,-801 424.5,-801 418.5,-801 412.5,-795 412.5,-789 412.5,-789 412.5,-777 412.5,-777 412.5,-771 418.5,-765 424.5,-765 424.5,-765 633.5,-765 633.5,-765 639.5,-765 645.5,-771 645.5,-777 645.5,-777 645.5,-789 645.5,-789 645.5,-795 639.5,-801 633.5,-801"/>
<text text-anchor="middle" x="529" y="-780.2" font-family="Noto Sans CJK JP" font-size="11.00">LINE誘導（チャット/フォーム/フッター）</text>
</g>
<!-- b4&#45;&gt;n43 -->
<g id="edge21" class="edge">
<title>b4&#45;&gt;n43</title>
<path fill="none" stroke="#9aa3bd" stroke-width="1.3" d="M321.27,-792.23C411.48,-811.69 437.81,-814.64 480.48,-801.07"/>
</g>
<!-- n44 -->
<g id="node23" class="node">
<title>n44</title>
<path fill="#ede9fe" stroke="#ffffff" d="M599,-752C599,-752 459,-752 459,-752 453,-752 447,-746 447,-740 447,-740 447,-728 447,-728 447,-722 453,-716 459,-716 459,-716 599,-716 599,-716 605,-716 611,-722 611,-728 611,-728 611,-740 611,-740 611,-746 605,-752 599,-752"/>
<text text-anchor="middle" x="529" y="-731.2" font-family="Noto Sans CJK JP" font-size="11.00">Instagram（@apprex1173）</text>
</g>
<!-- b4&#45;&gt;n44 -->
<g id="edge22" class="edge">
<title>b4&#45;&gt;n44</title>
<path fill="none" stroke="#9aa3bd" stroke-width="1.3" d="M321.4,-784.01C428.97,-786.3 449.43,-783.34 500.47,-752.06"/>
</g>
<!-- n51 -->
<g id="node24" class="node">
<title>n51</title>
<path fill="#fef3c7" stroke="#ffffff" d="M606,-703C606,-703 452,-703 452,-703 446,-703 440,-697 440,-691 440,-691 440,-669 440,-669 440,-663 446,-657 452,-657 452,-657 606,-657 606,-657 612,-657 618,-663 618,-669 618,-669 618,-691 618,-691 618,-697 612,-703 606,-703"/>
<text text-anchor="middle" x="529" y="-689.2" font-family="Noto Sans CJK JP" font-size="11.00">見積もり → 発注（/estimate）</text>
<text text-anchor="middle" x="529" y="-677.2" font-family="Noto Sans CJK JP" font-size="11.00">注文CPT・価格単一ソース・</text>
<text text-anchor="middle" x="529" y="-665.2" font-family="Noto Sans CJK JP" font-size="11.00">サーバー再計算（改ざん防止）</text>
</g>
<!-- b5&#45;&gt;n51 -->
<g id="edge23" class="edge">
<title>b5&#45;&gt;n51</title>
<path fill="none" stroke="#9aa3bd" stroke-width="1.3" d="M334.14,-675.07C385.52,-670.57 416.16,-668.33 439.95,-668.35"/>
</g>
<!-- n52 -->
<g id="node25" class="node">
<title>n52</title>
<path fill="#fef3c7" stroke="#ffffff" d="M599,-644C599,-644 459,-644 459,-644 453,-644 447,-638 447,-632 447,-632 447,-610 447,-610 447,-604 453,-598 459,-598 459,-598 599,-598 599,-598 605,-598 611,-604 611,-610 611,-610 611,-632 611,-632 611,-638 605,-644 599,-644"/>
<text text-anchor="middle" x="529" y="-630.2" font-family="Noto Sans CJK JP" font-size="11.00">フォーム4種</text>
<text text-anchor="middle" x="529" y="-618.2" font-family="Noto Sans CJK JP" font-size="11.00">お問い合わせ / 資料請求 /</text>
<text text-anchor="middle" x="529" y="-606.2" font-family="Noto Sans CJK JP" font-size="11.00">無料体験 / ミーティング予約</text>
</g>
<!-- b5&#45;&gt;n52 -->
<g id="edge24" class="edge">
<title>b5&#45;&gt;n52</title>
<path fill="none" stroke="#9aa3bd" stroke-width="1.3" d="M330.07,-661.97C389.26,-641.19 420.65,-630.93 446.75,-625.87"/>
</g>
<!-- n61 -->
<g id="node26" class="node">
<title>n61</title>
<path fill="#fee2e2" stroke="#ffffff" d="M578,-585C578,-585 480,-585 480,-585 474,-585 468,-579 468,-573 468,-573 468,-561 468,-561 468,-555 474,-549 480,-549 480,-549 578,-549 578,-549 584,-549 590,-555 590,-561 590,-561 590,-573 590,-573 590,-579 584,-585 578,-585"/>
<text text-anchor="middle" x="529" y="-564.2" font-family="Noto Sans CJK JP" font-size="11.00">自動返信（種別別）</text>
</g>
<!-- b6&#45;&gt;n61 -->
<g id="edge25" class="edge">
<title>b6&#45;&gt;n61</title>
<path fill="none" stroke="#9aa3bd" stroke-width="1.3" d="M327.66,-506.78C417.09,-496.11 435.42,-501.44 503.31,-548.85"/>
</g>
<!-- n62 -->
<g id="node27" class="node">
<title>n62</title>
<path fill="#fee2e2" stroke="#ffffff" d="M608.5,-536C608.5,-536 449.5,-536 449.5,-536 443.5,-536 437.5,-530 437.5,-524 437.5,-524 437.5,-502 437.5,-502 437.5,-496 443.5,-490 449.5,-490 449.5,-490 608.5,-490 608.5,-490 614.5,-490 620.5,-496 620.5,-502 620.5,-502 620.5,-524 620.5,-524 620.5,-530 614.5,-536 608.5,-536"/>
<text text-anchor="middle" x="529" y="-522.2" font-family="Noto Sans CJK JP" font-size="11.00">ステップメール（種別別）</text>
<text text-anchor="middle" x="529" y="-510.2" font-family="Noto Sans CJK JP" font-size="11.00">資料 / 見積 / お試し / 問い合わせ</text>
<text text-anchor="middle" x="529" y="-498.2" font-family="Noto Sans CJK JP" font-size="11.00">最大365日</text>
</g>
<!-- b6&#45;&gt;n62 -->
<g id="edge26" class="edge">
<title>b6&#45;&gt;n62</title>
<path fill="none" stroke="#9aa3bd" stroke-width="1.3" d="M327.64,-497.49C401.24,-474.64 425.77,-472.14 473.93,-489.98"/>
</g>
<!-- n63 -->
<g id="node28" class="node">
<title>n63</title>
<path fill="#fee2e2" stroke="#ffffff" d="M594.5,-477C594.5,-477 463.5,-477 463.5,-477 457.5,-477 451.5,-471 451.5,-465 451.5,-465 451.5,-453 451.5,-453 451.5,-447 457.5,-441 463.5,-441 463.5,-441 594.5,-441 594.5,-441 600.5,-441 606.5,-447 606.5,-453 606.5,-453 606.5,-465 606.5,-465 606.5,-471 600.5,-477 594.5,-477"/>
<text text-anchor="middle" x="529" y="-462.2" font-family="Noto Sans CJK JP" font-size="11.00">ミーティングリマインダー</text>
<text text-anchor="middle" x="529" y="-450.2" font-family="Noto Sans CJK JP" font-size="11.00">前日 / 直前 / 翌日フォロー</text>
</g>
<!-- b6&#45;&gt;n63 -->
<g id="edge27" class="edge">
<title>b6&#45;&gt;n63</title>
<path fill="none" stroke="#9aa3bd" stroke-width="1.3" d="M313.35,-494.88C384.41,-457.64 412.68,-445.49 451.3,-446.96"/>
</g>
<!-- n64 -->
<g id="node29" class="node">
<title>n64</title>
<path fill="#fee2e2" stroke="#ffffff" d="M610,-428C610,-428 448,-428 448,-428 442,-428 436,-422 436,-416 436,-416 436,-404 436,-404 436,-398 442,-392 448,-392 448,-392 610,-392 610,-392 616,-392 622,-398 622,-404 622,-404 622,-416 622,-416 622,-422 616,-428 610,-428"/>
<text text-anchor="middle" x="529" y="-407.2" font-family="Noto Sans CJK JP" font-size="11.00">cron（hourly）/ 配信停止リンク</text>
</g>
<!-- b6&#45;&gt;n64 -->
<g id="edge28" class="edge">
<title>b6&#45;&gt;n64</title>
<path fill="none" stroke="#9aa3bd" stroke-width="1.3" d="M303.93,-494.87C371.55,-445.8 402.2,-425.1 435.69,-416.37"/>
</g>
<!-- n71 -->
<g id="node30" class="node">
<title>n71</title>
<path fill="#ccfbf1" stroke="#ffffff" d="M595,-379C595,-379 463,-379 463,-379 457,-379 451,-373 451,-367 451,-367 451,-355 451,-355 451,-349 457,-343 463,-343 463,-343 595,-343 595,-343 601,-343 607,-349 607,-355 607,-355 607,-367 607,-367 607,-373 601,-379 595,-379"/>
<text text-anchor="middle" x="529" y="-364.2" font-family="Noto Sans CJK JP" font-size="11.00">設定 &gt; APPREX チャット</text>
<text text-anchor="middle" x="529" y="-352.2" font-family="Noto Sans CJK JP" font-size="11.00">APIキー / モデル / ナレッジ</text>
</g>
<!-- b7&#45;&gt;n71 -->
<g id="edge29" class="edge">
<title>b7&#45;&gt;n71</title>
<path fill="none" stroke="#9aa3bd" stroke-width="1.3" d="M315.12,-327.22C403.43,-303.8 422.04,-305.06 494.82,-342.88"/>
</g>
<!-- n72 -->
<g id="node31" class="node">
<title>n72</title>
<path fill="#ccfbf1" stroke="#ffffff" d="M625,-330C625,-330 433,-330 433,-330 427,-330 421,-324 421,-318 421,-318 421,-306 421,-306 421,-300 427,-294 433,-294 433,-294 625,-294 625,-294 631,-294 637,-300 637,-306 637,-306 637,-318 637,-318 637,-324 631,-330 625,-330"/>
<text text-anchor="middle" x="529" y="-315.2" font-family="Noto Sans CJK JP" font-size="11.00">設定 &gt; APPREX 連携</text>
<text text-anchor="middle" x="529" y="-303.2" font-family="Noto Sans CJK JP" font-size="11.00">LINE / 通知先 / 資料URL / ステップ有効</text>
</g>
<!-- b7&#45;&gt;n72 -->
<g id="edge30" class="edge">
<title>b7&#45;&gt;n72</title>
<path fill="none" stroke="#9aa3bd" stroke-width="1.3" d="M315.27,-320.51C391.97,-286.06 415.82,-279.98 469.61,-293.98"/>
</g>
<!-- n73 -->
<g id="node32" class="node">
<title>n73</title>
<path fill="#ccfbf1" stroke="#ffffff" d="M618.5,-281C618.5,-281 439.5,-281 439.5,-281 433.5,-281 427.5,-275 427.5,-269 427.5,-269 427.5,-257 427.5,-257 427.5,-251 433.5,-245 439.5,-245 439.5,-245 618.5,-245 618.5,-245 624.5,-245 630.5,-251 630.5,-257 630.5,-257 630.5,-269 630.5,-269 630.5,-275 624.5,-281 618.5,-281"/>
<text text-anchor="middle" x="529" y="-260.2" font-family="Noto Sans CJK JP" font-size="11.00">見積・発注 一覧 / お問い合わせ 一覧</text>
</g>
<!-- b7&#45;&gt;n73 -->
<g id="edge31" class="edge">
<title>b7&#45;&gt;n73</title>
<path fill="none" stroke="#9aa3bd" stroke-width="1.3" d="M306.9,-318.79C366.36,-280.14 395.38,-263.16 427.44,-257.91"/>
</g>
<!-- n81 -->
<g id="node33" class="node">
<title>n81</title>
<path fill="#e2e8f0" stroke="#ffffff" d="M595,-232C595,-232 463,-232 463,-232 457,-232 451,-226 451,-220 451,-220 451,-208 451,-208 451,-202 457,-196 463,-196 463,-196 595,-196 595,-196 601,-196 607,-202 607,-208 607,-208 607,-220 607,-220 607,-226 601,-232 595,-232"/>
<text text-anchor="middle" x="529" y="-211.2" font-family="Noto Sans CJK JP" font-size="11.00">REST: /chat /order /inquiry</text>
</g>
<!-- b8&#45;&gt;n81 -->
<g id="edge32" class="edge">
<title>b8&#45;&gt;n81</title>
<path fill="none" stroke="#9aa3bd" stroke-width="1.3" d="M315.25,-137C404.8,-127.69 421.09,-133.64 504.83,-195.92"/>
</g>
<!-- n82 -->
<g id="node34" class="node">
<title>n82</title>
<path fill="#e2e8f0" stroke="#ffffff" d="M634,-183C634,-183 424,-183 424,-183 418,-183 412,-177 412,-171 412,-171 412,-159 412,-159 412,-153 418,-147 424,-147 424,-147 634,-147 634,-147 640,-147 646,-153 646,-159 646,-159 646,-171 646,-171 646,-177 640,-183 634,-183"/>
<text text-anchor="middle" x="529" y="-162.2" font-family="Noto Sans CJK JP" font-size="11.00">CPT: case / apprex_order / apprex_inquiry</text>
</g>
<!-- b8&#45;&gt;n82 -->
<g id="edge33" class="edge">
<title>b8&#45;&gt;n82</title>
<path fill="none" stroke="#9aa3bd" stroke-width="1.3" d="M315.09,-130.78C400.45,-107.14 419.04,-108.6 494.33,-146.99"/>
</g>
<!-- n83 -->
<g id="node35" class="node">
<title>n83</title>
<path fill="#e2e8f0" stroke="#ffffff" d="M640,-134C640,-134 418,-134 418,-134 412,-134 406,-128 406,-122 406,-122 406,-110 406,-110 406,-104 412,-98 418,-98 418,-98 640,-98 640,-98 646,-98 652,-104 652,-110 652,-110 652,-122 652,-122 652,-128 646,-134 640,-134"/>
<text text-anchor="middle" x="529" y="-113.2" font-family="Noto Sans CJK JP" font-size="11.00">設定：定数(APIキー/モデル/MOCK) / options</text>
</g>
<!-- b8&#45;&gt;n83 -->
<g id="edge34" class="edge">
<title>b8&#45;&gt;n83</title>
<path fill="none" stroke="#9aa3bd" stroke-width="1.3" d="M315.01,-124.07C389.78,-89.36 413.24,-83.44 468.89,-97.95"/>
</g>
<!-- n84 -->
<g id="node36" class="node">
<title>n84</title>
<path fill="#e2e8f0" stroke="#ffffff" d="M611.5,-85C611.5,-85 446.5,-85 446.5,-85 440.5,-85 434.5,-79 434.5,-73 434.5,-73 434.5,-61 434.5,-61 434.5,-55 440.5,-49 446.5,-49 446.5,-49 611.5,-49 611.5,-49 617.5,-49 623.5,-55 623.5,-61 623.5,-61 623.5,-73 623.5,-73 623.5,-79 617.5,-85 611.5,-85"/>
<text text-anchor="middle" x="529" y="-64.2" font-family="Noto Sans CJK JP" font-size="11.00">self&#45;seeder（有効化で自動構築）</text>
</g>
<!-- b8&#45;&gt;n84 -->
<g id="edge35" class="edge">
<title>b8&#45;&gt;n84</title>
<path fill="none" stroke="#9aa3bd" stroke-width="1.3" d="M305.92,-122.91C369.75,-80.2 397.87,-63.71 434.47,-60.38"/>
</g>
<!-- n85 -->
<g id="node37" class="node">
<title>n85</title>
<path fill="#e2e8f0" stroke="#ffffff" d="M617.5,-36C617.5,-36 440.5,-36 440.5,-36 434.5,-36 428.5,-30 428.5,-24 428.5,-24 428.5,-12 428.5,-12 428.5,-6 434.5,0 440.5,0 440.5,0 617.5,0 617.5,0 623.5,0 629.5,-6 629.5,-12 629.5,-12 629.5,-24 629.5,-24 629.5,-30 623.5,-36 617.5,-36"/>
<text text-anchor="middle" x="529" y="-21.2" font-family="Noto Sans CJK JP" font-size="11.00">セキュリティ：nonce / サニタイズ /</text>
<text text-anchor="middle" x="529" y="-9.2" font-family="Noto Sans CJK JP" font-size="11.00">スロットル / サーバー再計算</text>
</g>
<!-- b8&#45;&gt;n85 -->
<g id="edge36" class="edge">
<title>b8&#45;&gt;n85</title>
<path fill="none" stroke="#9aa3bd" stroke-width="1.3" d="M299.5,-122.87C364.1,-65.82 393.4,-41.64 428.19,-30.26"/>
</g>
</g>
</svg>
