<?xml version="1.0" encoding="UTF-8" standalone="no"?>
<!DOCTYPE svg PUBLIC "-//W3C//DTD SVG 1.1//EN"
 "http://www.w3.org/Graphics/SVG/1.1/DTD/svg11.dtd">
<!-- Generated by graphviz version 2.43.0 (0)
 -->
<!-- Title: APPREX_FLOW Pages: 1 -->
<svg width="819pt" height="1020pt"
 viewBox="0.00 0.00 819.10 1020.14" xmlns="http://www.w3.org/2000/svg" xmlns:xlink="http://www.w3.org/1999/xlink">
<g id="graph0" class="graph" transform="scale(1 1) rotate(0) translate(28.8 991.34)">
<title>APPREX_FLOW</title>
<polygon fill="#ffffff" stroke="transparent" points="-28.8,28.8 -28.8,-991.34 790.3,-991.34 790.3,28.8 -28.8,28.8"/>
<!-- start -->
<g id="node1" class="node">
<title>start</title>
<ellipse fill="#1e3a8a" stroke="#ffffff" stroke-width="0" cx="157" cy="-944.15" rx="44.6" ry="18.27"/>
<text text-anchor="middle" x="157" y="-940.75" font-family="Noto Sans CJK JP" font-size="13.00" fill="#ffffff">来訪者</text>
</g>
<!-- home -->
<g id="node2" class="node">
<title>home</title>
<path fill="#dbeafe" stroke="#ffffff" d="M461.5,-884.77C461.5,-884.77 292.5,-884.77 292.5,-884.77 286.5,-884.77 280.5,-878.77 280.5,-872.77 280.5,-872.77 280.5,-860.77 280.5,-860.77 280.5,-854.77 286.5,-848.77 292.5,-848.77 292.5,-848.77 461.5,-848.77 461.5,-848.77 467.5,-848.77 473.5,-854.77 473.5,-860.77 473.5,-860.77 473.5,-872.77 473.5,-872.77 473.5,-878.77 467.5,-884.77 461.5,-884.77"/>
<text text-anchor="middle" x="377" y="-869.97" font-family="Noto Sans CJK JP" font-size="11.00">HOME・各ページ回遊</text>
<text text-anchor="middle" x="377" y="-857.97" font-family="Noto Sans CJK JP" font-size="11.00">（特徴/機能/料金/事例/HP制作）</text>
</g>
<!-- start&#45;&gt;home -->
<g id="edge1" class="edge">
<title>start&#45;&gt;home</title>
<path fill="none" stroke="#64748b" stroke-width="1.3" d="M190.41,-931.71C224.13,-920.15 276.91,-902.07 317.74,-888.07"/>
<polygon fill="#64748b" stroke="#64748b" stroke-width="1.3" points="318.99,-891.35 327.32,-884.79 316.72,-884.72 318.99,-891.35"/>
</g>
<!-- chat -->
<g id="node3" class="node">
<title>chat</title>
<path fill="#ede9fe" stroke="#ffffff" d="M359,-798.77C359,-798.77 223,-798.77 223,-798.77 217,-798.77 211,-792.77 211,-786.77 211,-786.77 211,-774.77 211,-774.77 211,-768.77 217,-762.77 223,-762.77 223,-762.77 359,-762.77 359,-762.77 365,-762.77 371,-768.77 371,-774.77 371,-774.77 371,-786.77 371,-786.77 371,-792.77 365,-798.77 359,-798.77"/>
<text text-anchor="middle" x="291" y="-783.97" font-family="Noto Sans CJK JP" font-size="11.00">右下 AIチャットで相談</text>
<text text-anchor="middle" x="291" y="-771.97" font-family="Noto Sans CJK JP" font-size="11.00">（料金・作れるアプリ等）</text>
</g>
<!-- start&#45;&gt;chat -->
<g id="edge2" class="edge">
<title>start&#45;&gt;chat</title>
<path fill="none" stroke="#64748b" stroke-width="1.3" d="M170.84,-926.49C194.38,-898.13 242.39,-840.32 270.06,-806.99"/>
<polygon fill="#64748b" stroke="#64748b" stroke-width="1.3" points="272.94,-809 276.63,-799.07 267.55,-804.53 272.94,-809"/>
</g>
<!-- home&#45;&gt;chat -->
<g id="edge3" class="edge">
<title>home&#45;&gt;chat</title>
<path fill="none" stroke="#64748b" stroke-width="1.3" stroke-dasharray="5,2" d="M315.83,-848.76C306.88,-843.71 298.75,-837.19 293,-828.77 289.13,-823.1 287.59,-816.1 287.26,-809.24"/>
<polygon fill="#64748b" stroke="#64748b" stroke-width="1.3" points="290.77,-808.9 287.58,-798.8 283.77,-808.68 290.77,-808.9"/>
<text text-anchor="middle" x="302.5" y="-821.57" font-family="Noto Sans CJK JP" font-size="9.00" fill="#475569">疑問</text>
</g>
<!-- est -->
<g id="node5" class="node">
<title>est</title>
<path fill="#fef3c7" stroke="#ffffff" d="M283,-574.77C283,-574.77 91,-574.77 91,-574.77 85,-574.77 79,-568.77 79,-562.77 79,-562.77 79,-550.77 79,-550.77 79,-544.77 85,-538.77 91,-538.77 91,-538.77 283,-538.77 283,-538.77 289,-538.77 295,-544.77 295,-550.77 295,-550.77 295,-562.77 295,-562.77 295,-568.77 289,-574.77 283,-574.77"/>
<text text-anchor="middle" x="187" y="-559.97" font-family="Noto Sans CJK JP" font-size="11.00">① 見積もり /estimate</text>
<text text-anchor="middle" x="187" y="-547.97" font-family="Noto Sans CJK JP" font-size="11.00">サービス→プラン→オプション→概算</text>
</g>
<!-- home&#45;&gt;est -->
<g id="edge6" class="edge">
<title>home&#45;&gt;est</title>
<path fill="none" stroke="#64748b" stroke-width="1.3" d="M280.48,-851.02C249.56,-841.34 218.36,-825.31 199,-798.77 152.17,-734.58 168.14,-633.23 179.57,-585.01"/>
<polygon fill="#64748b" stroke="#64748b" stroke-width="1.3" points="183.03,-585.56 182.05,-575.02 176.24,-583.87 183.03,-585.56"/>
</g>
<!-- doc -->
<g id="node6" class="node">
<title>doc</title>
<path fill="#fef3c7" stroke="#ffffff" d="M665.5,-742.77C665.5,-742.77 546.5,-742.77 546.5,-742.77 540.5,-742.77 534.5,-736.77 534.5,-730.77 534.5,-730.77 534.5,-718.77 534.5,-718.77 534.5,-712.77 540.5,-706.77 546.5,-706.77 546.5,-706.77 665.5,-706.77 665.5,-706.77 671.5,-706.77 677.5,-712.77 677.5,-718.77 677.5,-718.77 677.5,-730.77 677.5,-730.77 677.5,-736.77 671.5,-742.77 665.5,-742.77"/>
<text text-anchor="middle" x="606" y="-721.97" font-family="Noto Sans CJK JP" font-size="11.00">② 資料請求 /document</text>
</g>
<!-- home&#45;&gt;doc -->
<g id="edge7" class="edge">
<title>home&#45;&gt;doc</title>
<path fill="none" stroke="#64748b" stroke-width="1.3" d="M473.61,-854.94C495.09,-849.43 516.85,-841.15 535,-828.77 562.91,-809.73 583.12,-775.79 594.68,-752.1"/>
<polygon fill="#64748b" stroke="#64748b" stroke-width="1.3" points="597.89,-753.49 598.96,-742.95 591.55,-750.52 597.89,-753.49"/>
</g>
<!-- trial -->
<g id="node7" class="node">
<title>trial</title>
<path fill="#fef3c7" stroke="#ffffff" d="M749.5,-630.77C749.5,-630.77 638.5,-630.77 638.5,-630.77 632.5,-630.77 626.5,-624.77 626.5,-618.77 626.5,-618.77 626.5,-606.77 626.5,-606.77 626.5,-600.77 632.5,-594.77 638.5,-594.77 638.5,-594.77 749.5,-594.77 749.5,-594.77 755.5,-594.77 761.5,-600.77 761.5,-606.77 761.5,-606.77 761.5,-618.77 761.5,-618.77 761.5,-624.77 755.5,-630.77 749.5,-630.77"/>
<text text-anchor="middle" x="694" y="-609.97" font-family="Noto Sans CJK JP" font-size="11.00">③ 無料体験 /free&#45;trial</text>
</g>
<!-- home&#45;&gt;trial -->
<g id="edge8" class="edge">
<title>home&#45;&gt;trial</title>
<path fill="none" stroke="#64748b" stroke-width="1.3" d="M473.86,-856.47C545.35,-843.77 637.19,-813.74 679,-742.77 697.39,-711.56 698.6,-668.71 696.96,-641.13"/>
<polygon fill="#64748b" stroke="#64748b" stroke-width="1.3" points="700.44,-640.72 696.19,-631.01 693.46,-641.25 700.44,-640.72"/>
</g>
<!-- mtg -->
<g id="node8" class="node">
<title>mtg</title>
<path fill="#fef3c7" stroke="#ffffff" d="M485.5,-574.77C485.5,-574.77 332.5,-574.77 332.5,-574.77 326.5,-574.77 320.5,-568.77 320.5,-562.77 320.5,-562.77 320.5,-550.77 320.5,-550.77 320.5,-544.77 326.5,-538.77 332.5,-538.77 332.5,-538.77 485.5,-538.77 485.5,-538.77 491.5,-538.77 497.5,-544.77 497.5,-550.77 497.5,-550.77 497.5,-562.77 497.5,-562.77 497.5,-568.77 491.5,-574.77 485.5,-574.77"/>
<text text-anchor="middle" x="409" y="-559.97" font-family="Noto Sans CJK JP" font-size="11.00">④ ミーティング予約 /meeting</text>
<text text-anchor="middle" x="409" y="-547.97" font-family="Noto Sans CJK JP" font-size="11.00">（希望日時を選択）</text>
</g>
<!-- home&#45;&gt;mtg -->
<g id="edge9" class="edge">
<title>home&#45;&gt;mtg</title>
<path fill="none" stroke="#64748b" stroke-width="1.3" d="M382.92,-848.64C384.83,-842.45 386.78,-835.36 388,-828.77 404.3,-740.77 407.97,-634.42 408.78,-585.21"/>
<polygon fill="#64748b" stroke="#64748b" stroke-width="1.3" points="412.29,-585.1 408.92,-575.05 405.29,-585.01 412.29,-585.1"/>
</g>
<!-- cont -->
<g id="node9" class="node">
<title>cont</title>
<path fill="#fef3c7" stroke="#ffffff" d="M575.5,-518.77C575.5,-518.77 448.5,-518.77 448.5,-518.77 442.5,-518.77 436.5,-512.77 436.5,-506.77 436.5,-506.77 436.5,-494.77 436.5,-494.77 436.5,-488.77 442.5,-482.77 448.5,-482.77 448.5,-482.77 575.5,-482.77 575.5,-482.77 581.5,-482.77 587.5,-488.77 587.5,-494.77 587.5,-494.77 587.5,-506.77 587.5,-506.77 587.5,-512.77 581.5,-518.77 575.5,-518.77"/>
<text text-anchor="middle" x="512" y="-497.97" font-family="Noto Sans CJK JP" font-size="11.00">⑤ お問い合わせ /contact</text>
</g>
<!-- home&#45;&gt;cont -->
<g id="edge10" class="edge">
<title>home&#45;&gt;cont</title>
<path fill="none" stroke="#64748b" stroke-width="1.3" d="M392.78,-848.49C397.74,-842.52 402.96,-835.61 407,-828.77 468.93,-723.87 485.04,-694 510,-574.77 513.12,-559.89 513.75,-542.93 513.55,-529.1"/>
<polygon fill="#64748b" stroke="#64748b" stroke-width="1.3" points="517.03,-528.67 513.23,-518.79 510.04,-528.89 517.03,-528.67"/>
</g>
<!-- chat&#45;&gt;home -->
<g id="edge4" class="edge">
<title>chat&#45;&gt;home</title>
<path fill="none" stroke="#64748b" stroke-width="1.3" stroke-dasharray="5,2" d="M308.5,-798.86C320.96,-811.04 337.9,-827.58 351.81,-841.17"/>
<polygon fill="#64748b" stroke="#64748b" stroke-width="1.3" points="349.58,-843.88 359.18,-848.36 354.47,-838.87 349.58,-843.88"/>
<text text-anchor="middle" x="359" y="-821.57" font-family="Noto Sans CJK JP" font-size="9.00" fill="#475569">ページ案内</text>
</g>
<!-- chatcta -->
<g id="node4" class="node">
<title>chatcta</title>
<path fill="#ede9fe" stroke="#ffffff" d="M337,-686.77C337,-686.77 227,-686.77 227,-686.77 221,-686.77 215,-680.77 215,-674.77 215,-674.77 215,-662.77 215,-662.77 215,-656.77 221,-650.77 227,-650.77 227,-650.77 337,-650.77 337,-650.77 343,-650.77 349,-656.77 349,-662.77 349,-662.77 349,-674.77 349,-674.77 349,-680.77 343,-686.77 337,-686.77"/>
<text text-anchor="middle" x="282" y="-671.97" font-family="Noto Sans CJK JP" font-size="11.00">チャット内CTA</text>
<text text-anchor="middle" x="282" y="-659.97" font-family="Noto Sans CJK JP" font-size="11.00">見積 / 相談予約 / LINE</text>
</g>
<!-- chat&#45;&gt;chatcta -->
<g id="edge5" class="edge">
<title>chat&#45;&gt;chatcta</title>
<path fill="none" stroke="#64748b" stroke-width="1.3" d="M289.59,-762.58C288.15,-744.98 285.9,-717.38 284.21,-696.84"/>
<polygon fill="#64748b" stroke="#64748b" stroke-width="1.3" points="287.7,-696.52 283.4,-686.84 280.72,-697.09 287.7,-696.52"/>
</g>
<!-- chatcta&#45;&gt;est -->
<g id="edge11" class="edge">
<title>chatcta&#45;&gt;est</title>
<path fill="none" stroke="#64748b" stroke-width="1.3" d="M268.84,-650.59C257.16,-635.56 239.44,-613.3 223,-594.77 219.28,-590.58 215.23,-586.23 211.24,-582.05"/>
<polygon fill="#64748b" stroke="#64748b" stroke-width="1.3" points="213.66,-579.52 204.19,-574.77 208.63,-584.39 213.66,-579.52"/>
</g>
<!-- chatcta&#45;&gt;mtg -->
<g id="edge12" class="edge">
<title>chatcta&#45;&gt;mtg</title>
<path fill="none" stroke="#64748b" stroke-width="1.3" d="M301.84,-650.58C323.28,-632.02 357.58,-602.31 381.58,-581.52"/>
<polygon fill="#64748b" stroke="#64748b" stroke-width="1.3" points="384.03,-584.03 389.3,-574.84 379.45,-578.74 384.03,-584.03"/>
</g>
<!-- line -->
<g id="node10" class="node">
<title>line</title>
<path fill="#dcfce7" stroke="#ffffff" d="M70,-406.77C70,-406.77 12,-406.77 12,-406.77 6,-406.77 0,-400.77 0,-394.77 0,-394.77 0,-382.77 0,-382.77 0,-376.77 6,-370.77 12,-370.77 12,-370.77 70,-370.77 70,-370.77 76,-370.77 82,-376.77 82,-382.77 82,-382.77 82,-394.77 82,-394.77 82,-400.77 76,-406.77 70,-406.77"/>
<text text-anchor="middle" x="41" y="-385.97" font-family="Noto Sans CJK JP" font-size="11.00">LINEで相談</text>
</g>
<!-- chatcta&#45;&gt;line -->
<g id="edge13" class="edge">
<title>chatcta&#45;&gt;line</title>
<path fill="none" stroke="#64748b" stroke-width="1.3" d="M214.81,-656.89C165.67,-645.25 101.61,-621.68 66,-574.77 30.8,-528.4 32.69,-456.03 36.95,-416.97"/>
<polygon fill="#64748b" stroke="#64748b" stroke-width="1.3" points="40.44,-417.24 38.18,-406.88 33.49,-416.38 40.44,-417.24"/>
</g>
<!-- order -->
<g id="node11" class="node">
<title>order</title>
<path fill="#fde68a" stroke="#ffffff" d="M332.5,-462.77C332.5,-462.77 219.5,-462.77 219.5,-462.77 213.5,-462.77 207.5,-456.77 207.5,-450.77 207.5,-450.77 207.5,-438.77 207.5,-438.77 207.5,-432.77 213.5,-426.77 219.5,-426.77 219.5,-426.77 332.5,-426.77 332.5,-426.77 338.5,-426.77 344.5,-432.77 344.5,-438.77 344.5,-438.77 344.5,-450.77 344.5,-450.77 344.5,-456.77 338.5,-462.77 332.5,-462.77"/>
<text text-anchor="middle" x="276" y="-447.97" font-family="Noto Sans CJK JP" font-size="11.00">発注（注文CPT作成）</text>
<text text-anchor="middle" x="276" y="-435.97" font-family="Noto Sans CJK JP" font-size="11.00">金額はサーバー再計算</text>
</g>
<!-- est&#45;&gt;order -->
<g id="edge14" class="edge">
<title>est&#45;&gt;order</title>
<path fill="none" stroke="#64748b" stroke-width="1.3" d="M200.91,-538.58C215.6,-520.42 238.92,-491.59 255.68,-470.88"/>
<polygon fill="#64748b" stroke="#64748b" stroke-width="1.3" points="258.62,-472.81 262.19,-462.84 253.18,-468.41 258.62,-472.81"/>
</g>
<!-- save -->
<g id="node12" class="node">
<title>save</title>
<path fill="#e2e8f0" stroke="#ffffff" d="M573,-350.77C573,-350.77 451,-350.77 451,-350.77 445,-350.77 439,-344.77 439,-338.77 439,-338.77 439,-326.77 439,-326.77 439,-320.77 445,-314.77 451,-314.77 451,-314.77 573,-314.77 573,-314.77 579,-314.77 585,-320.77 585,-326.77 585,-326.77 585,-338.77 585,-338.77 585,-344.77 579,-350.77 573,-350.77"/>
<text text-anchor="middle" x="512" y="-335.97" font-family="Noto Sans CJK JP" font-size="11.00">DB保存</text>
<text text-anchor="middle" x="512" y="-323.97" font-family="Noto Sans CJK JP" font-size="11.00">注文 / お問い合わせ CPT</text>
</g>
<!-- doc&#45;&gt;save -->
<g id="edge16" class="edge">
<title>doc&#45;&gt;save</title>
<path fill="none" stroke="#64748b" stroke-width="1.3" d="M606,-706.62C606,-684.98 606,-646.62 606,-613.77 606,-613.77 606,-613.77 606,-443.77 606,-407.05 575.35,-376.4 549.05,-356.86"/>
<polygon fill="#64748b" stroke="#64748b" stroke-width="1.3" points="550.89,-353.87 540.71,-350.91 546.82,-359.57 550.89,-353.87"/>
</g>
<!-- trial&#45;&gt;save -->
<g id="edge17" class="edge">
<title>trial&#45;&gt;save</title>
<path fill="none" stroke="#64748b" stroke-width="1.3" d="M694.24,-594.54C693.91,-550.92 686.89,-435.03 625,-370.77 616.55,-362 606,-355.31 594.76,-350.2"/>
<polygon fill="#64748b" stroke="#64748b" stroke-width="1.3" points="595.77,-346.83 585.19,-346.27 593.11,-353.31 595.77,-346.83"/>
</g>
<!-- mtg&#45;&gt;save -->
<g id="edge18" class="edge">
<title>mtg&#45;&gt;save</title>
<path fill="none" stroke="#64748b" stroke-width="1.3" d="M412.17,-538.55C415.24,-523.5 420.54,-501.23 428,-482.77 446.37,-437.3 475.99,-388.5 494.71,-359.58"/>
<polygon fill="#64748b" stroke="#64748b" stroke-width="1.3" points="497.83,-361.2 500.37,-350.92 491.97,-357.37 497.83,-361.2"/>
</g>
<!-- cont&#45;&gt;save -->
<g id="edge19" class="edge">
<title>cont&#45;&gt;save</title>
<path fill="none" stroke="#64748b" stroke-width="1.3" d="M512,-482.63C512,-453.93 512,-395.9 512,-361.38"/>
<polygon fill="#64748b" stroke="#64748b" stroke-width="1.3" points="515.5,-361.06 512,-351.06 508.5,-361.06 515.5,-361.06"/>
</g>
<!-- goal -->
<g id="node17" class="node">
<title>goal</title>
<ellipse fill="#10b981" stroke="#ffffff" stroke-width="0" cx="303" cy="-18.38" rx="62.45" ry="18.27"/>
<text text-anchor="middle" x="303" y="-14.98" font-family="Noto Sans CJK JP" font-size="13.00" fill="#ffffff">商談・成約</text>
</g>
<!-- line&#45;&gt;goal -->
<g id="edge26" class="edge">
<title>line&#45;&gt;goal</title>
<path fill="none" stroke="#64748b" stroke-width="1.3" d="M41,-370.63C41,-351.97 41,-321.25 41,-294.77 41,-294.77 41,-294.77 41,-112.77 41,-93.39 50.87,-88.51 67,-77.77 116.47,-44.84 182.92,-30.48 232.7,-24.21"/>
<polygon fill="#64748b" stroke="#64748b" stroke-width="1.3" points="233.21,-27.67 242.74,-23.03 232.4,-20.72 233.21,-27.67"/>
</g>
<!-- order&#45;&gt;save -->
<g id="edge15" class="edge">
<title>order&#45;&gt;save</title>
<path fill="none" stroke="#64748b" stroke-width="1.3" d="M298.96,-426.76C321.65,-410.59 357.83,-386.46 392,-370.77 405.9,-364.39 421.19,-358.73 436.06,-353.87"/>
<polygon fill="#64748b" stroke="#64748b" stroke-width="1.3" points="437.28,-357.16 445.76,-350.8 435.17,-350.48 437.28,-357.16"/>
</g>
<!-- admin -->
<g id="node13" class="node">
<title>admin</title>
<path fill="#e2e8f0" stroke="#ffffff" d="M625,-205.77C625,-205.77 523,-205.77 523,-205.77 517,-205.77 511,-199.77 511,-193.77 511,-193.77 511,-181.77 511,-181.77 511,-175.77 517,-169.77 523,-169.77 523,-169.77 625,-169.77 625,-169.77 631,-169.77 637,-175.77 637,-181.77 637,-181.77 637,-193.77 637,-193.77 637,-199.77 631,-205.77 625,-205.77"/>
<text text-anchor="middle" x="574" y="-190.97" font-family="Noto Sans CJK JP" font-size="11.00">管理者へ通知メール</text>
<text text-anchor="middle" x="574" y="-178.97" font-family="Noto Sans CJK JP" font-size="11.00">（管理画面で対応）</text>
</g>
<!-- save&#45;&gt;admin -->
<g id="edge20" class="edge">
<title>save&#45;&gt;admin</title>
<path fill="none" stroke="#64748b" stroke-width="1.3" d="M524.26,-314.66C531.88,-303.44 541.44,-288.23 548,-273.77 556.51,-255.03 563.2,-232.76 567.67,-215.71"/>
<polygon fill="#64748b" stroke="#64748b" stroke-width="1.3" points="571.11,-216.4 570.16,-205.85 564.32,-214.69 571.11,-216.4"/>
</g>
<!-- ar -->
<g id="node14" class="node">
<title>ar</title>
<path fill="#fee2e2" stroke="#ffffff" d="M523.5,-273.77C523.5,-273.77 306.5,-273.77 306.5,-273.77 300.5,-273.77 294.5,-267.77 294.5,-261.77 294.5,-261.77 294.5,-237.77 294.5,-237.77 294.5,-231.77 300.5,-225.77 306.5,-225.77 306.5,-225.77 523.5,-225.77 523.5,-225.77 529.5,-225.77 535.5,-231.77 535.5,-237.77 535.5,-237.77 535.5,-261.77 535.5,-261.77 535.5,-267.77 529.5,-273.77 523.5,-273.77"/>
<text text-anchor="middle" x="415" y="-258.97" font-family="Noto Sans CJK JP" font-size="11.00">自動返信メール（種別別）</text>
<text text-anchor="middle" x="415" y="-246.97" font-family="Noto Sans CJK JP" font-size="11.00">見積=明細 / 資料=DLリンク /</text>
<text text-anchor="middle" x="415" y="-234.97" font-family="Noto Sans CJK JP" font-size="11.00">体験=開始案内 / 予約=日時確認 / 問合=受付</text>
</g>
<!-- save&#45;&gt;ar -->
<g id="edge21" class="edge">
<title>save&#45;&gt;ar</title>
<path fill="none" stroke="#64748b" stroke-width="1.3" d="M491.43,-314.59C479.62,-304.73 464.46,-292.07 450.76,-280.63"/>
<polygon fill="#64748b" stroke="#64748b" stroke-width="1.3" points="452.82,-277.79 442.9,-274.07 448.33,-283.17 452.82,-277.79"/>
</g>
<!-- admin&#45;&gt;goal -->
<g id="edge27" class="edge">
<title>admin&#45;&gt;goal</title>
<path fill="none" stroke="#64748b" stroke-width="1.3" stroke-dasharray="5,2" d="M572.94,-169.69C570.51,-145.62 562.48,-101.97 536,-77.77 511.63,-55.5 428.27,-38.44 368.21,-28.67"/>
<polygon fill="#64748b" stroke="#64748b" stroke-width="1.3" points="368.47,-25.16 358.04,-27.05 367.37,-32.08 368.47,-25.16"/>
<text text-anchor="middle" x="587.5" y="-111.57" font-family="Noto Sans CJK JP" font-size="9.00" fill="#475569">個別対応</text>
</g>
<!-- drip -->
<g id="node15" class="node">
<title>drip</title>
<path fill="#fecaca" stroke="#ffffff" d="M317,-149.77C317,-149.77 91,-149.77 91,-149.77 85,-149.77 79,-143.77 79,-137.77 79,-137.77 79,-89.77 79,-89.77 79,-83.77 85,-77.77 91,-77.77 91,-77.77 317,-77.77 317,-77.77 323,-77.77 329,-83.77 329,-89.77 329,-89.77 329,-137.77 329,-137.77 329,-143.77 323,-149.77 317,-149.77"/>
<text text-anchor="middle" x="204" y="-134.97" font-family="Noto Sans CJK JP" font-size="11.00">ステップメール（種別別・wp&#45;cron hourly）</text>
<text text-anchor="middle" x="204" y="-122.97" font-family="Noto Sans CJK JP" font-size="11.00">資料 1/3/7/14/30日</text>
<text text-anchor="middle" x="204" y="-110.97" font-family="Noto Sans CJK JP" font-size="11.00">見積 1/3/7/14/30日</text>
<text text-anchor="middle" x="204" y="-98.97" font-family="Noto Sans CJK JP" font-size="11.00">体験 1/3/7/14/25/30日（終了前含む）</text>
<text text-anchor="middle" x="204" y="-86.97" font-family="Noto Sans CJK JP" font-size="11.00">問合 〜365日</text>
</g>
<!-- ar&#45;&gt;drip -->
<g id="edge22" class="edge">
<title>ar&#45;&gt;drip</title>
<path fill="none" stroke="#64748b" stroke-width="1.3" d="M367.4,-225.56C355.65,-219.44 343.22,-212.62 332,-205.77 307.13,-190.59 280.73,-172.23 258.4,-155.99"/>
<polygon fill="#64748b" stroke="#64748b" stroke-width="1.3" points="260.18,-152.96 250.05,-149.88 256.05,-158.61 260.18,-152.96"/>
<text text-anchor="middle" x="374" y="-185.57" font-family="Noto Sans CJK JP" font-size="9.00" fill="#475569">資料/見積/体験/問合</text>
</g>
<!-- rem -->
<g id="node16" class="node">
<title>rem</title>
<path fill="#fecaca" stroke="#ffffff" d="M511.5,-131.77C511.5,-131.77 366.5,-131.77 366.5,-131.77 360.5,-131.77 354.5,-125.77 354.5,-119.77 354.5,-119.77 354.5,-107.77 354.5,-107.77 354.5,-101.77 360.5,-95.77 366.5,-95.77 366.5,-95.77 511.5,-95.77 511.5,-95.77 517.5,-95.77 523.5,-101.77 523.5,-107.77 523.5,-107.77 523.5,-119.77 523.5,-119.77 523.5,-125.77 517.5,-131.77 511.5,-131.77"/>
<text text-anchor="middle" x="439" y="-116.97" font-family="Noto Sans CJK JP" font-size="11.00">ミーティングリマインダー</text>
<text text-anchor="middle" x="439" y="-104.97" font-family="Noto Sans CJK JP" font-size="11.00">前日 → 直前 → 翌日フォロー</text>
</g>
<!-- ar&#45;&gt;rem -->
<g id="edge23" class="edge">
<title>ar&#45;&gt;rem</title>
<path fill="none" stroke="#64748b" stroke-width="1.3" d="M419.13,-225.73C423.28,-202.53 429.69,-166.73 434.11,-142.1"/>
<polygon fill="#64748b" stroke="#64748b" stroke-width="1.3" points="437.6,-142.44 435.92,-131.98 430.71,-141.2 437.6,-142.44"/>
<text text-anchor="middle" x="455" y="-185.57" font-family="Noto Sans CJK JP" font-size="9.00" fill="#475569">ミーティング</text>
</g>
<!-- drip&#45;&gt;goal -->
<g id="edge24" class="edge">
<title>drip&#45;&gt;goal</title>
<path fill="none" stroke="#64748b" stroke-width="1.3" d="M241.15,-77.73C253.45,-66.12 266.84,-53.49 278.01,-42.96"/>
<polygon fill="#64748b" stroke="#64748b" stroke-width="1.3" points="280.47,-45.45 285.34,-36.04 275.67,-40.36 280.47,-45.45"/>
</g>
<!-- rem&#45;&gt;goal -->
<g id="edge25" class="edge">
<title>rem&#45;&gt;goal</title>
<path fill="none" stroke="#64748b" stroke-width="1.3" d="M414.06,-95.64C391.79,-80.35 359.06,-57.88 334.9,-41.29"/>
<polygon fill="#64748b" stroke="#64748b" stroke-width="1.3" points="336.65,-38.24 326.42,-35.47 332.69,-44.01 336.65,-38.24"/>
</g>
</g>
</svg>
